<?xml version="1.0" encoding="UTF-8"?>
<svg version="1.1" xmlns="http://www.w3.org/2000/svg" width="1254" height="1254">
<path d="M0 0 C6.5545364 4.67850301 10.59261143 10.78323238 13.25 18.3125 C13.25 19.3025 13.25 20.2925 13.25 21.3125 C14.34054687 21.41046875 15.43109375 21.5084375 16.5546875 21.609375 C53.03632418 25.12351115 86.59837659 37.66079319 113.25 63.3125 C114.32701172 64.27736328 114.32701172 64.27736328 115.42578125 65.26171875 C134.22582768 82.63009832 143.46321637 109.97919879 148.5 134.375 C148.65122314 135.10452881 148.80244629 135.83405762 148.95825195 136.58569336 C151.22666897 148.45293426 152.29394853 160.49192181 152.671875 172.5546875 C152.70057678 173.42473923 152.72927856 174.29479095 152.7588501 175.19120789 C152.87237571 178.74333139 152.98230799 182.29487241 153.05273438 185.84814453 C153.31177413 197.99398271 154.98898431 208.56419402 158.88378906 220.09423828 C162.95151175 232.16790204 162.93152237 245.79567202 157.7265625 257.44140625 C153.10904146 266.41991938 148.38093681 271.74703159 139.25 276.3125 C139.24635437 276.8819635 139.24270874 277.451427 139.23895264 278.03814697 C139.19647547 284.07545877 139.12669972 290.11205547 139.04248047 296.14892578 C139.01460668 298.38876114 138.99322905 300.62868872 138.97900391 302.86865234 C138.88078788 317.47665002 137.77194553 331.12011727 134.25 345.3125 C134.05152466 346.12740906 133.85304932 346.94231812 133.64855957 347.78192139 C131.1838795 357.83373063 128.01884655 367.06904262 123.29052734 376.28320312 C122.13928605 378.52842077 121.01820053 380.78774177 119.89453125 383.046875 C115.10523271 392.54189412 110.05729988 401.10303204 103.25 409.3125 C102.59016113 410.12025879 102.59016113 410.12025879 101.91699219 410.94433594 C76.62936872 441.86718314 44.93791733 459.5300275 6.25 468.3125 C5.519021 468.489021 4.78804199 468.66554199 4.03491211 468.84741211 C0.46552355 469.4435097 -3.0557137 469.49364279 -6.6640625 469.515625 C-7.4270163 469.52272995 -8.18997009 469.5298349 -8.9760437 469.53715515 C-39.24336138 469.75474675 -64.82644406 466.10873673 -91.75 451.3125 C-92.79285156 450.75949219 -93.83570313 450.20648437 -94.91015625 449.63671875 C-133.29315996 428.44768245 -159.85434026 389.93506105 -171.9453125 348.47265625 C-173.47405906 342.4689865 -174.68326886 336.41393036 -175.75 330.3125 C-175.92692383 329.30767578 -176.10384766 328.30285156 -176.28613281 327.26757812 C-176.86563167 322.32658787 -176.82782623 317.49206837 -176.78515625 312.5234375 C-176.78886627 310.42707843 -176.79479192 308.33072231 -176.80273438 306.234375 C-176.81332207 302.95071108 -176.8122879 299.66922928 -176.77416992 296.38574219 C-176.7411074 293.20127427 -176.75859211 290.02039486 -176.78515625 286.8359375 C-176.76260269 285.85563568 -176.74004913 284.87533386 -176.71681213 283.86532593 C-176.76516657 281.12333587 -176.88282169 278.91622324 -177.75 276.3125 C-180.1617117 274.00312006 -182.76439859 272.741074 -185.75 271.3125 C-194.2757483 263.67833322 -198.30523556 255.10443081 -198.953125 243.75390625 C-199.07489794 233.67719572 -198.66248583 223.41348102 -194.78540039 213.96069336 C-190.7320214 203.69831226 -190.94865572 193.25469355 -190.6875 182.375 C-190.20443802 163.97080167 -188.96990987 145.75889778 -184.5625 127.8125 C-184.3552832 126.96341064 -184.14806641 126.11432129 -183.93457031 125.23950195 C-175.10116432 90.75183185 -156.35914943 62.58685679 -125.82421875 43.859375 C-112.29762156 35.85411171 -97.98211918 30.1578228 -82.75 26.3125 C-81.75250732 26.04759766 -81.75250732 26.04759766 -80.73486328 25.77734375 C-70.69481506 23.11427508 -61.14724238 21.61518537 -50.75 21.3125 C-50.564375 19.96285156 -50.564375 19.96285156 -50.375 18.5859375 C-48.68199094 9.71880254 -42.96774591 3.42507002 -35.75 -1.6875 C-23.85933082 -7.73750597 -11.29885539 -6.95751666 0 0 Z " fill="#45BB44" transform="translate(639.75,156.6875)"/>
<path d="M0 0 C0.85207031 -0.01933594 1.70414063 -0.03867187 2.58203125 -0.05859375 C9.03270058 1.16964464 13.64141243 6.63227909 18.0546875 11.14453125 C18.69310577 11.78815109 19.33152405 12.43177094 19.98928833 13.09489441 C22.01854831 15.14185926 24.04097287 17.19540035 26.0625 19.25 C28.07771404 21.29303513 30.094448 23.33450875 32.11428833 25.37297058 C33.3660932 26.6368145 34.61522124 27.90331808 35.86105347 29.17304993 C39.55564461 32.90919617 43.39040236 36.40881094 47.36672974 39.84281921 C49.62090305 41.81708634 51.74263311 43.89546757 53.84375 46.03125 C54.63910156 46.83433594 55.43445313 47.63742187 56.25390625 48.46484375 C57.87630208 50.11328125 59.49869792 51.76171875 61.12109375 53.41015625 C65.3421141 57.6722238 69.62718391 61.74408559 74.17773438 65.65039062 C78.8309185 69.78806164 83.11298362 74.32758232 87.4765625 78.765625 C91.6560453 82.98819525 95.91325557 87.02023874 100.41943359 90.89208984 C102.72438788 92.90677648 104.86691666 95.05542236 107 97.25 C109.35635369 99.67308229 111.3621415 101.55392767 114.1875 103.4375 C118.07496198 103.20045964 119.85951044 101.0481364 122.4375 98.3125 C125.22346683 95.42671026 128.00284411 92.65628236 131.0625 90.0625 C135.37442246 86.3690206 139.31822066 82.33977403 143.28125 78.28125 C145.41555488 76.14090748 147.64419565 74.15612916 149.9375 72.1875 C154.76316067 68.0089062 159.21203255 63.48480481 163.6875 58.9375 C168.73699129 53.80695749 173.80865029 48.82029122 179.27148438 44.13085938 C182.5638544 41.22108893 185.61437371 38.07532368 188.6875 34.9375 C192.37646545 31.17087212 196.07273477 27.48723281 200.07421875 24.05078125 C204.79342792 19.98233945 209.13274964 15.56461574 213.5 11.125 C215.07707754 9.52242403 216.65640596 7.92205913 218.23828125 6.32421875 C218.92575439 5.62514404 219.61322754 4.92606934 220.3215332 4.20581055 C224.77228229 -0.01200649 227.90258736 0.06719777 233.77246094 0.17041016 C239.62944778 0.62848448 245.15509234 2.09804388 250.8125 3.625 C252.04234619 3.94452637 253.27219238 4.26405273 254.53930664 4.59326172 C261.9636993 6.53420939 269.36465743 8.56119011 276.74389648 10.66723633 C282.25051687 12.22485047 287.79841632 13.53138597 293.375 14.8125 C355.09131654 29.16579274 413.53767944 57.18743541 448.60546875 112.171875 C467.12260711 141.98974038 479.36534364 176.54333538 479.32794189 211.92048645 C479.33239858 213.26945803 479.33239858 213.26945803 479.3369453 214.64568156 C479.34554886 217.62943869 479.34713334 220.61315532 479.34863281 223.59692383 C479.35326652 225.74789514 479.35829192 227.89886564 479.36367798 230.04983521 C479.3767416 235.86964078 479.38323386 241.68943486 479.38768864 247.50925279 C479.39062617 251.14598319 479.39473202 254.78271049 479.39919281 258.41943932 C479.41284524 269.80132844 479.42252569 281.18321042 479.4263947 292.56510717 C479.43088486 305.70040991 479.44848649 318.83560909 479.4773953 331.97088033 C479.49898393 342.13243696 479.5090973 352.29396437 479.51043582 362.4555437 C479.51148489 368.52260148 479.51741577 374.5895616 479.53525543 380.65659523 C479.55168964 386.35544206 479.55391429 392.05411725 479.54511642 397.75297928 C479.54434384 399.84560416 479.54871779 401.93823811 479.55857468 404.03083992 C479.57122784 406.88391023 479.56545377 409.73636625 479.55499268 412.58943176 C479.56304908 413.42016403 479.57110548 414.25089631 479.57940602 415.10680228 C479.5397331 419.7222866 479.13487054 422.66545818 476.1875 426.4375 C472.56867142 429.5241479 469.04834796 430.1238916 464.41015625 430 C460.34964861 428.97238471 458.34604497 425.84491742 456.1875 422.4375 C454.56501947 419.19253895 455.05245214 415.62969155 455.06292725 412.06459045 C455.0615171 411.18763391 455.06010695 410.31067737 455.05865407 409.40714639 C455.05498603 406.44988188 455.0583443 403.49266488 455.06152344 400.53540039 C455.06012917 398.42130496 455.05823018 396.3072098 455.05586243 394.19311523 C455.05135549 389.62653949 455.04950911 385.05997276 455.04940033 380.49339485 C455.04825963 373.24813186 455.03541373 366.00291983 455.01983643 358.75767517 C455.01597715 356.92189717 455.01597715 356.92189717 455.0120399 355.04903275 C455.00677244 352.54504709 455.00148695 350.04106146 454.99618387 347.53707588 C454.96114628 330.66850878 454.93450609 313.80000299 454.93701172 296.93139648 C454.93861014 285.5591104 454.92232706 274.18699682 454.88630509 262.81476587 C454.86798629 256.80608468 454.85837647 250.79769083 454.87078094 244.78898811 C454.99618226 201.31863102 454.99618226 201.31863102 444.1875 159.4375 C443.88328125 158.59445312 443.5790625 157.75140625 443.265625 156.8828125 C431.69752849 125.9330806 411.53622884 100.0366007 385.1875 80.4375 C384.34703125 79.80199219 383.5065625 79.16648437 382.640625 78.51171875 C347.44070044 52.82049864 304.66071815 43.63606066 263.1875 33.4375 C263.01154297 34.08178955 262.83558594 34.7260791 262.65429688 35.38989258 C261.15090722 40.67481749 259.43136965 45.32924536 256.6875 50.125 C254.57029696 53.85332026 252.66423064 57.53877902 251.01416016 61.49731445 C244.89678453 75.85489984 237.56157062 89.69714841 230.1875 103.4375 C229.04145008 105.58061336 227.89563109 107.72385022 226.75 109.8671875 C224.85910849 113.40279974 222.96704577 116.93775154 221.06982422 120.4699707 C217.82570134 126.50983804 214.59132791 132.55441198 211.3828125 138.61328125 C203.89518795 152.73457949 196.10926254 166.62579662 187.97753906 180.38525391 C185.44451499 184.70438469 182.96423143 189.05311731 180.47949219 193.40014648 C173.67958239 205.28266842 166.62141501 216.94241718 159.1875 228.4375 C158.24184079 229.90993364 157.29652706 231.38258921 156.3515625 232.85546875 C152.71585603 238.50883424 149.06328259 244.14867105 145.3125 249.7265625 C144.85053223 250.41395508 144.38856445 251.10134766 143.91259766 251.80957031 C143.03552882 253.11074079 142.15517476 254.40970502 141.27099609 255.70605469 C139.53539559 258.27620228 138.17401625 260.47795125 137.1875 263.4375 C137.90421875 263.540625 138.6209375 263.64375 139.359375 263.75 C150.43096813 266.441437 159.65849642 276.47393236 165.9375 285.5 C173.72163484 298.49170291 176.33870167 312.70238273 173 327.5625 C168.633106 342.76576061 161.24864381 355.9875982 147.2265625 364.1640625 C142.1813848 366.79253779 137.87004824 368.71242708 132.1875 369.4375 C132.08308594 370.71367188 131.97867187 371.98984375 131.87109375 373.3046875 C131.13678909 380.63224787 129.88096503 387.87464752 128.65844727 395.13330078 C128.249858 397.56334452 127.8482384 399.99447047 127.44726562 402.42578125 C127.18531186 403.99486118 126.92295577 405.563874 126.66015625 407.1328125 C126.5423732 407.84760773 126.42459015 408.56240295 126.30323792 409.29885864 C123.8455712 423.7794288 123.8455712 423.7794288 119.1875 428.4375 C116.39019287 429.36993571 114.60276332 429.58349872 111.70361328 429.63037109 C110.34672897 429.65446548 110.34672897 429.65446548 108.96243286 429.67904663 C104.83580373 429.72358765 100.70933276 429.76454283 96.58251953 429.78759766 C94.40597859 429.80417278 92.22949242 429.83148305 90.05322266 429.86962891 C86.91279916 429.92437329 83.77364875 429.94626613 80.6328125 429.9609375 C79.66183624 429.98360687 78.69085999 430.00627625 77.69046021 430.02963257 C70.90170704 430.00839168 70.90170704 430.00839168 67.09716797 426.96728516 C66.46697754 426.13245605 65.83678711 425.29762695 65.1875 424.4375 C64.8575 424.1075 64.5275 423.7775 64.1875 423.4375 C64.08303105 421.92348151 64.04787246 420.40462363 64.04032898 418.88702393 C64.03317368 417.90315201 64.02601837 416.91928009 64.01864624 415.90559387 C64.01595734 414.81687485 64.01326843 413.72815582 64.01049805 412.60644531 C64.00392685 411.4665062 63.99735565 410.32656708 63.99058533 409.15208435 C63.97078093 405.3565973 63.959169 401.56115009 63.94921875 397.765625 C63.94514322 396.46989311 63.9410677 395.17416122 63.93686867 393.83916473 C63.91812835 387.68019075 63.90357622 381.52123675 63.8952567 375.36224008 C63.88552347 368.2743945 63.85931758 361.1868645 63.81875581 354.09912992 C63.78843907 348.61105137 63.77377257 343.12306232 63.77047569 337.63490176 C63.76813959 334.36302038 63.75735574 331.09154899 63.73401451 327.8197403 C63.70950105 324.15334034 63.71061178 320.48774696 63.7175293 316.82128906 C63.69831421 315.22464668 63.69831421 315.22464668 63.67871094 313.5957489 C63.76491835 300.96089284 67.77572777 290.56963698 75.1875 280.4375 C75.66058594 279.78007813 76.13367188 279.12265625 76.62109375 278.4453125 C80.64139832 273.32027834 85.81505295 270.01913137 91.1875 266.4375 C92.52788799 265.44697599 93.86374345 264.45014326 95.1875 263.4375 C94.62804687 262.60992188 94.06859375 261.78234375 93.4921875 260.9296875 C79.56610131 240.24068826 66.65401463 219.02676839 54.1875 197.4375 C53.62788574 196.46893066 53.06827148 195.50036133 52.49169922 194.50244141 C49.02821403 188.49696866 45.59951094 182.47234173 42.1875 176.4375 C41.65092773 175.49052246 41.11435547 174.54354492 40.56152344 173.56787109 C32.15732865 158.71884566 24.00179173 143.74619906 15.98936462 128.68281555 C13.91938642 124.79613437 11.82427185 120.92398468 9.71484375 117.05859375 C1.55863982 102.06819858 -6.18106918 86.88876957 -13.8125 71.625 C-14.3075 70.63590637 -14.8025 69.64681274 -15.3125 68.62774658 C-20.97411069 57.30334883 -26.54409909 45.95088894 -31.8125 34.4375 C-37.12380203 35.02197099 -42.14647646 35.89988502 -47.3359375 37.22265625 C-48.3785675 37.48736977 -48.3785675 37.48736977 -49.44226074 37.75743103 C-51.69242763 38.33170474 -53.94018211 38.91468205 -56.1875 39.5 C-56.96127991 39.70069092 -57.73505981 39.90138184 -58.5322876 40.1081543 C-100.86128511 51.11572078 -139.06202562 65.65840465 -171.8125 95.4375 C-173.00552734 96.50484375 -173.00552734 96.50484375 -174.22265625 97.59375 C-202.0645549 123.86922604 -222.16905779 167.20954842 -223.90590632 205.49654388 C-223.94239969 207.82165628 -223.94877069 210.14494089 -223.94380188 212.47033691 C-223.94591759 213.35750979 -223.94803331 214.24468266 -223.95021313 215.15873957 C-223.95618534 218.11951081 -223.95521498 221.0802391 -223.9543457 224.04101562 C-223.95737896 226.16859509 -223.96090087 228.29617391 -223.96487427 230.42375183 C-223.97274941 234.99955822 -223.97790289 239.57535687 -223.98116493 244.15116882 C-223.9870839 251.38713965 -224.00363152 258.62306154 -224.02250671 265.85900879 C-224.02884358 268.33773038 -224.03516921 270.816452 -224.04148388 273.29517365 C-224.04464969 274.5362642 -224.0478155 275.77735476 -224.05107725 277.05605412 C-224.09314015 293.89787519 -224.12614468 310.73967283 -224.13842773 327.58154297 C-224.14680321 338.94889679 -224.16927141 350.31612875 -224.2077834 361.68342161 C-224.22755432 367.69694067 -224.23994496 373.71027753 -224.23494911 379.72383118 C-224.23030895 385.3775882 -224.24407385 391.03099937 -224.27196121 396.68468666 C-224.27888243 398.75871457 -224.27898959 400.83277818 -224.27176094 402.90680504 C-224.26288434 405.73983651 -224.27854707 408.57172445 -224.30024719 411.40466309 C-224.29180466 412.22383414 -224.28336212 413.04300519 -224.27466375 413.88699961 C-224.35416781 419.50627321 -225.58634674 422.80883108 -228.8125 427.4375 C-232.68406184 429.91099784 -237.32643592 430.31368439 -241.8125 429.4375 C-245.33520578 427.46357004 -247.51265869 425.33702392 -248.8125 421.4375 C-248.91508542 418.60660427 -248.96030568 415.80005614 -248.95967102 412.96884155 C-248.96334771 412.09370301 -248.9670244 411.21856447 -248.9708125 410.31690657 C-248.98186206 407.3719097 -248.98569559 404.42694811 -248.98950195 401.48193359 C-248.99576643 399.37429695 -249.00241321 397.26666142 -249.00941467 395.1590271 C-249.03048697 388.21800509 -249.04083075 381.27698282 -249.05078125 374.3359375 C-249.05482982 371.94084283 -249.05894677 369.54574828 -249.06313133 367.15065384 C-249.08220227 355.87976016 -249.09642048 344.60887304 -249.1047433 333.33796632 C-249.11447602 320.37369269 -249.14068312 307.40959161 -249.18124419 294.44537866 C-249.21157272 284.40254628 -249.22622855 274.35976282 -249.22952431 264.31688559 C-249.23185889 258.33176817 -249.24060695 252.34683463 -249.26598549 246.36176682 C-249.46027433 198.05746378 -249.46027433 198.05746378 -244.8125 178.4375 C-244.6477096 177.70701824 -244.4829192 176.97653648 -244.31313515 176.22391891 C-243.33043887 171.89038654 -242.15771289 167.67292275 -240.8125 163.4375 C-240.57160645 162.67663086 -240.33071289 161.91576172 -240.08251953 161.13183594 C-236.29533837 149.33661034 -231.71589695 138.3205216 -225.8125 127.4375 C-225.45929688 126.77266602 -225.10609375 126.10783203 -224.7421875 125.42285156 C-212.12289548 101.71628589 -195.08833484 80.92420772 -173.8125 64.4375 C-173.27028809 64.01355957 -172.72807617 63.58961914 -172.16943359 63.15283203 C-140.66460849 38.67690063 -103.87069274 25.15734501 -65.4140625 16.07128906 C-61.60232299 15.14267835 -57.83371731 14.07967182 -54.0625 13 C-45.03542692 10.4312349 -35.93114233 8.18246066 -26.81933594 5.93579102 C-21.46530161 4.61323967 -16.13412263 3.25859214 -10.828125 1.75390625 C-7.17614474 0.7495867 -3.81246596 0.00585632 0 0 Z " fill="#44BA44" transform="translate(504.8125,617.5625)"/>
<path d="M0 0 C0.7228418 0.01401855 1.44568359 0.02803711 2.19042969 0.04248047 C12.70665293 0.30965534 22.80009923 2.61560761 33 5 C33.96292969 5.21398437 34.92585937 5.42796875 35.91796875 5.6484375 C59.53587976 11.43088312 82.05489037 23.28425152 102.93701172 35.40893555 C109.4975134 39.21498689 116.18327469 42.67503937 123 46 C123.42989805 71.86002118 122.96522866 96.13310364 115 121 C114.69320313 121.98871094 114.38640625 122.97742188 114.0703125 123.99609375 C102.51075179 158.4190334 77.15862923 186.06002695 45.03271484 202.17407227 C43.03528621 203.14857533 41.02376732 204.08136159 39 205 C38.09612549 205.41145264 37.19225098 205.82290527 36.26098633 206.24682617 C6.72645626 219.16412614 -27.5676438 218.10552518 -57.5 207.1875 C-83.22606861 197.0781549 -104.1026668 179.46861353 -120 157 C-120.91652344 155.71802734 -120.91652344 155.71802734 -121.8515625 154.41015625 C-132.75933483 138.24772647 -141.55238895 118.33131427 -143.67578125 98.85546875 C-143.9105517 96.13928014 -143.9105517 96.13928014 -144.51316833 94.11956787 C-145.05593219 91.75648241 -145.1200416 89.65547543 -145.11352539 87.23144531 C-145.11344986 86.29077209 -145.11337433 85.35009888 -145.11329651 84.38092041 C-145.10813522 83.37349792 -145.10297394 82.36607544 -145.09765625 81.328125 C-145.0962413 80.29057068 -145.09482635 79.25301636 -145.09336853 78.184021 C-145.08777447 74.87265124 -145.07522303 71.56134929 -145.0625 68.25 C-145.05748423 66.00390723 -145.05292146 63.75781339 -145.04882812 61.51171875 C-145.03780699 56.0077894 -145.02107474 50.50389954 -145 45 C-143.48611694 44.24795288 -143.48611694 44.24795288 -141.94165039 43.48071289 C-133.39057782 39.22426952 -124.8926326 34.88215294 -116.4375 30.4375 C-107.3897432 25.71093827 -98.3259469 21.15218837 -89 17 C-87.89527344 16.49210937 -86.79054688 15.98421875 -85.65234375 15.4609375 C-70.59813737 8.72024808 -55.28351031 4.43205742 -39 2 C-37.91332031 1.79503906 -36.82664062 1.59007812 -35.70703125 1.37890625 C-23.90423839 -0.70563086 -11.93996331 -0.26371745 0 0 Z " fill="#FDFDFD" transform="translate(632,387)"/>
<path d="M0 0 C2.24930787 1.82416479 4.13484853 3.57562036 6.11328125 5.66015625 C6.68652634 6.24284775 7.25977142 6.82553925 7.85038757 7.42588806 C9.68324902 9.29331741 11.49826936 11.17698139 13.3125 13.0625 C15.69977705 15.5162768 18.09365519 17.96355343 20.48828125 20.41015625 C21.06490509 21.00164459 21.64152893 21.59313293 22.23562622 22.20254517 C25.7324085 25.77187296 29.32083966 29.14031089 33.13745117 32.36889648 C37.76570211 36.42202855 41.97821706 40.94371565 46.2890625 45.328125 C50.41524052 49.49684094 54.61867586 53.46665658 59.06640625 57.2890625 C62.36351715 60.20650609 65.41900008 63.35785476 68.5 66.5 C72.90657874 70.95427016 77.32183256 75.28892161 82.11328125 79.33203125 C84.51501098 81.45529956 86.74704563 83.7197784 89 86 C92.56678414 89.60496073 96.19951479 93.04265231 100.0546875 96.3359375 C101.42892522 97.51149025 102.78689533 98.70618812 104.1328125 99.9140625 C104.83148437 100.54054688 105.53015625 101.16703125 106.25 101.8125 C106.87390625 102.37582031 107.4978125 102.93914062 108.140625 103.51953125 C112.35375477 106.87410306 115.59650231 107.55898252 121 107 C125.42819873 104.37700403 129.19675897 101.19429241 132.9375 97.6875 C133.72398926 96.95901855 133.72398926 96.95901855 134.52636719 96.21582031 C137.89186141 93.08343392 141.15959525 89.87091611 144.37890625 86.58984375 C146.0874296 84.91425579 147.86677325 83.36514428 149.6875 81.8125 C153.81942824 78.2582394 157.63431015 74.42681255 161.4362793 70.52661133 C164.15159982 67.76337068 166.93898264 65.15387432 169.875 62.625 C174.12619575 58.94763486 178.06572309 55.01111825 182 51 C185.84165027 47.0833175 189.67480029 43.22662452 193.84375 39.65625 C199.00184667 35.21343626 203.72339504 30.34513588 208.5 25.5 C213.96139608 19.96024817 219.41808552 14.5300045 225.33349609 9.47460938 C227.41907727 7.62917863 229.23026671 5.5939809 231.0625 3.5 C233.03515625 1.46875 233.03515625 1.46875 235 0 C239 0 239 0 242 1 C241.36452215 5.95219683 239.24472885 9.98579763 237.0546875 14.40234375 C236.45190475 15.63503998 236.45190475 15.63503998 235.83694458 16.89263916 C234.52218309 19.57719442 233.19890453 22.25744336 231.875 24.9375 C230.96060329 26.7977687 230.04654337 28.65820299 229.1328125 30.51879883 C226.85103819 35.16029674 224.56130559 39.79781423 222.26843262 44.43383789 C221.10305957 46.7915005 219.94008812 49.15032491 218.77832031 51.50976562 C211.80360188 65.66858984 204.67039778 79.71483682 197.01953125 93.5234375 C194.85673965 97.42715163 192.73528143 101.35044272 190.63671875 105.2890625 C183.25838696 119.13608289 175.58318269 132.76021214 167.60351562 146.26904297 C166.11959514 148.79631681 164.65580628 151.33357872 163.203125 153.87890625 C156.3857267 165.82187604 149.16214346 177.48587688 141.81933594 189.11230469 C140.11231642 191.82172857 138.41717567 194.53813045 136.7265625 197.2578125 C130.80585906 206.75621215 124.64302499 215.99076478 118 225 C114.6054667 223.8684889 114.33093031 223.39678509 112.5390625 220.484375 C112.0745166 219.73905518 111.6099707 218.99373535 111.13134766 218.22583008 C110.63425293 217.40880615 110.1371582 216.59178223 109.625 215.75 C109.09825684 214.89881592 108.57151367 214.04763184 108.02880859 213.1706543 C106.91031498 211.36181203 105.79533581 209.55079266 104.68359375 207.73779297 C103.07361702 205.11971306 101.44665172 202.51319854 99.8125 199.91015625 C63.25129053 141.54484399 31.31786375 80.10902331 0.72119141 18.45068359 C-0.43849135 16.12572529 -1.6083153 13.80580113 -2.78759766 11.49072266 C-3.33851074 10.40710449 -3.88942383 9.32348633 -4.45703125 8.20703125 C-4.94792236 7.24901611 -5.43881348 6.29100098 -5.94458008 5.30395508 C-7 3 -7 3 -7 1 C-4.31431472 -0.34284264 -2.99514089 -0.45220183 0 0 Z " fill="#FCFDFC" transform="translate(503,643)"/>
<path d="M0 0 C3.1771513 1.45685484 6.09748286 3.28098354 9.0625 5.125 C10.76724278 6.14446156 12.47428091 7.16009466 14.18359375 8.171875 C15.01101074 8.66236328 15.83842773 9.15285156 16.69091797 9.65820312 C25.04069151 14.51021786 33.71041018 17.74219136 43.00244141 20.26513672 C55.61816693 23.70196891 55.61816693 23.70196891 59 28 C59.3742218 30.06863403 59.3742218 30.06863403 59.37231445 32.47705078 C59.38165764 33.8358989 59.38165764 33.8358989 59.39118958 35.22219849 C59.38197983 36.20332611 59.37277008 37.18445374 59.36328125 38.1953125 C59.36402901 39.72658279 59.36402901 39.72658279 59.36479187 41.28878784 C59.36244781 43.45930924 59.35269984 45.62983316 59.33618164 47.80029297 C59.31293638 51.06373575 59.31557507 54.32634118 59.32226562 57.58984375 C59.29050337 82.11053879 58.03292786 105.35619282 40.375 124.1875 C34.83942892 129.47259275 28.67451013 133.32025382 22 137 C21.02812744 137.53850586 21.02812744 137.53850586 20.03662109 138.08789062 C0.46966203 148.86458088 0.46966203 148.86458088 -8.9140625 146.16015625 C-21.11049913 141.75341455 -32.05308075 135.29597829 -42 127 C-43.546875 125.8553125 -43.546875 125.8553125 -45.125 124.6875 C-48.4647873 121.56552491 -50.84928229 118.18808229 -53.38671875 114.40234375 C-54.93084975 112.0275862 -54.93084975 112.0275862 -56.578125 110.04296875 C-58.29425122 107.57721597 -59.13232214 105.22955393 -60.0625 102.375 C-60.38347656 101.41335938 -60.70445312 100.45171875 -61.03515625 99.4609375 C-63.58450166 90.31632197 -64.31871378 81.74854804 -64.3359375 72.2578125 C-64.3425943 70.97188202 -64.3492511 69.68595154 -64.35610962 68.36105347 C-64.36799087 65.65993884 -64.37179912 62.95895136 -64.37060547 60.2578125 C-64.37040077 56.80098742 -64.39789631 53.34497058 -64.43214989 49.88833809 C-64.45971384 46.57398316 -64.45856479 43.25978062 -64.4609375 39.9453125 C-64.47530853 38.70677521 -64.48967957 37.46823792 -64.50448608 36.19216919 C-64.49833282 35.04352386 -64.49217957 33.89487854 -64.48583984 32.71142578 C-64.48868988 31.70234161 -64.49153992 30.69325745 -64.49447632 29.65359497 C-63.86731291 26.28793801 -62.62803773 25.12103654 -60 23 C-57.94799805 22.19799805 -57.94799805 22.19799805 -55.76171875 21.76171875 C-54.94928711 21.58543945 -54.13685547 21.40916016 -53.29980469 21.22753906 C-52.43774414 21.04932617 -51.57568359 20.87111328 -50.6875 20.6875 C-35.86471473 17.28493632 -13.61764502 -1.79469541 0 0 Z " fill="#F9FCF9" transform="translate(811,781)"/>
<path d="M0 0 C0.76731445 0.1335791 1.53462891 0.2671582 2.32519531 0.40478516 C28.4450525 5.03495443 54.27836841 16.49799316 78 28 C79.16821289 28.56041992 80.33642578 29.12083984 81.54003906 29.69824219 C84.9235476 31.34230816 88.27744892 33.03407538 91.625 34.75 C93.13707031 35.4912915 93.13707031 35.4912915 94.6796875 36.24755859 C99.28158803 38.69392506 102.30126225 40.42396744 104.04296875 45.48828125 C104.39487643 46.9848315 104.71649723 48.48899774 105 50 C105.46986328 51.66869141 105.46986328 51.66869141 105.94921875 53.37109375 C108.18495049 62.65706952 110.08117543 71.41456566 105 80 C102.39314648 82.18412051 100.72428507 82.90879373 97.36328125 83.33203125 C92.74477593 82.87608125 89.51107085 80.98992687 85.5 78.75 C84.26854248 78.08315186 84.26854248 78.08315186 83.01220703 77.40283203 C80.33387524 75.94865038 77.66617386 74.47634261 75 73 C48.51892915 58.38619842 21.85007966 45.26607052 -8 39 C-8.75522949 38.83773926 -9.51045898 38.67547852 -10.28857422 38.50830078 C-23.68380476 35.79111879 -37.19903846 35.69041268 -50.8125 35.625 C-52.11867279 35.61308121 -52.11867279 35.61308121 -53.45123291 35.60092163 C-65.3130434 35.51783226 -76.39888391 36.54033992 -88 39 C-88.95898193 39.18804199 -89.91796387 39.37608398 -90.90600586 39.56982422 C-121.92447262 45.76928379 -150.04469309 60.19103742 -177.15625 75.9921875 C-178.36873413 76.69045654 -178.36873413 76.69045654 -179.60571289 77.40283203 C-181.11260175 78.27342283 -182.61241729 79.15642635 -184.10327148 80.05419922 C-188.55559895 82.61854462 -191.72344174 83.62382955 -197 83 C-200.52382575 80.80739731 -202.50548492 78.84491985 -204 75 C-204.86824995 66.96364001 -204.16538873 59.21288331 -202.3125 51.375 C-202.16409668 50.71274414 -202.01569336 50.05048828 -201.86279297 49.36816406 C-200.31785737 43.46931903 -197.6088949 40.6067576 -192.48120117 37.44873047 C-189.33021237 35.65329971 -186.14567026 33.94111061 -182.9375 32.25 C-181.2037915 31.32791748 -181.2037915 31.32791748 -179.43505859 30.38720703 C-165.73986997 23.15111684 -151.86279742 16.46809954 -137 12 C-135.56071736 11.52621479 -134.1231351 11.0472255 -132.6875 10.5625 C-131.96046875 10.32402344 -131.2334375 10.08554687 -130.484375 9.83984375 C-128.6312123 9.21338152 -126.78898059 8.55440696 -124.953125 7.87890625 C-85.46377837 -6.20562738 -40.95802028 -7.6734858 0 0 Z " fill="#FBFDFB" transform="translate(669,328)"/>
<path d="M0 0 C0.80129837 0.00045822 1.60259674 0.00091644 2.42817688 0.00138855 C4.11481212 0.00439127 5.80144508 0.01221759 7.48803711 0.0246582 C10.02663377 0.04279622 12.56486114 0.04516813 15.10351562 0.04492188 C40.33070852 0.09691857 40.33070852 0.09691857 45.61328125 3.04296875 C46.91796875 4.41796875 46.91796875 4.41796875 48.36328125 6.23046875 C49.04648437 7.03484375 49.7296875 7.83921875 50.43359375 8.66796875 C59.06536352 19.43573579 65.07287378 31.37159839 68.4765625 44.75390625 C69.17728459 47.50123074 69.97299088 50.14717749 70.8359375 52.84375 C72.64584373 58.82460343 73.58211353 64.87015422 74.48828125 71.04296875 C74.65714844 72.12900391 74.82601562 73.21503906 75 74.33398438 C76.64865217 85.27090919 77.58805474 96.16661792 77.36328125 107.23046875 C76.02925243 107.11312362 74.69607985 106.98604699 73.36328125 106.85546875 C72.62078125 106.78585937 71.87828125 106.71625 71.11328125 106.64453125 C68.36328125 106.23046875 68.36328125 106.23046875 64.828125 105.29296875 C33.47198178 97.27332681 -4.22771898 98.86580152 -35.63671875 105.23046875 C-37.59638268 105.61462766 -39.55732973 105.9923015 -41.51953125 106.36328125 C-42.3820752 106.52973145 -43.24461914 106.69618164 -44.13330078 106.86767578 C-46.67102929 107.235441 -49.07631545 107.29412043 -51.63671875 107.23046875 C-51.27496864 102.82277827 -50.9020159 98.41620343 -50.51977539 94.01025391 C-50.39188254 92.51928829 -50.26676772 91.02808109 -50.14477539 89.53662109 C-47.94972565 62.78050034 -43.14384301 30.969608 -24.63671875 10.23046875 C-23.71246094 9.15152344 -23.71246094 9.15152344 -22.76953125 8.05078125 C-16.18343142 0.84963707 -9.40523064 -0.09021304 0 0 Z " fill="#FCFDFC" transform="translate(607.63671875,199.76953125)"/>
<path d="M0 0 C3.1771513 1.45685484 6.09748286 3.28098354 9.0625 5.125 C10.76724278 6.14446156 12.47428091 7.16009466 14.18359375 8.171875 C15.01101074 8.66236328 15.83842773 9.15285156 16.69091797 9.65820312 C25.04069151 14.51021786 33.71041018 17.74219136 43.00244141 20.26513672 C55.61816693 23.70196891 55.61816693 23.70196891 59 28 C59.3742218 30.06863403 59.3742218 30.06863403 59.37231445 32.47705078 C59.38165764 33.8358989 59.38165764 33.8358989 59.39118958 35.22219849 C59.38197983 36.20332611 59.37277008 37.18445374 59.36328125 38.1953125 C59.36402901 39.72658279 59.36402901 39.72658279 59.36479187 41.28878784 C59.36244781 43.45930924 59.35269984 45.62983316 59.33618164 47.80029297 C59.31293638 51.06373575 59.31557507 54.32634118 59.32226562 57.58984375 C59.29050337 82.11053879 58.03292786 105.35619282 40.375 124.1875 C34.83942892 129.47259275 28.67451013 133.32025382 22 137 C21.02812744 137.53850586 21.02812744 137.53850586 20.03662109 138.08789062 C0.46966203 148.86458088 0.46966203 148.86458088 -8.9140625 146.16015625 C-21.11049913 141.75341455 -32.05308075 135.29597829 -42 127 C-43.546875 125.8553125 -43.546875 125.8553125 -45.125 124.6875 C-48.4647873 121.56552491 -50.84928229 118.18808229 -53.38671875 114.40234375 C-54.93084975 112.0275862 -54.93084975 112.0275862 -56.578125 110.04296875 C-58.29425122 107.57721597 -59.13232214 105.22955393 -60.0625 102.375 C-60.38347656 101.41335938 -60.70445312 100.45171875 -61.03515625 99.4609375 C-63.58450166 90.31632197 -64.31871378 81.74854804 -64.3359375 72.2578125 C-64.3425943 70.97188202 -64.3492511 69.68595154 -64.35610962 68.36105347 C-64.36799087 65.65993884 -64.37179912 62.95895136 -64.37060547 60.2578125 C-64.37040077 56.80098742 -64.39789631 53.34497058 -64.43214989 49.88833809 C-64.45971384 46.57398316 -64.45856479 43.25978062 -64.4609375 39.9453125 C-64.47530853 38.70677521 -64.48967957 37.46823792 -64.50448608 36.19216919 C-64.49833282 35.04352386 -64.49217957 33.89487854 -64.48583984 32.71142578 C-64.48868988 31.70234161 -64.49153992 30.69325745 -64.49447632 29.65359497 C-63.86731291 26.28793801 -62.62803773 25.12103654 -60 23 C-57.94799805 22.19799805 -57.94799805 22.19799805 -55.76171875 21.76171875 C-54.94928711 21.58543945 -54.13685547 21.40916016 -53.29980469 21.22753906 C-52.43774414 21.04932617 -51.57568359 20.87111328 -50.6875 20.6875 C-35.86471473 17.28493632 -13.61764502 -1.79469541 0 0 Z M-10.75 23.125 C-22.15859768 30.19599717 -34.19561175 34.13304088 -47 38 C-47.04989487 43.7617063 -47.08595113 49.52328342 -47.10986328 55.28515625 C-47.11984485 57.2402567 -47.13343487 59.19534252 -47.15087891 61.15039062 C-47.31434645 79.95877405 -47.0031857 96.9033761 -33.375 111.375 C-25.57994892 118.58868502 -14.12322524 127.08470702 -3.2265625 128.3125 C0.88793535 127.91400142 4.08013519 126.38897264 7.6875 124.5 C8.38866943 124.1390625 9.08983887 123.778125 9.81225586 123.40625 C23.26466866 116.31128397 34.02637367 107.79048428 39 93 C40.76468954 86.00738548 41.27489542 79.37048921 41.1953125 72.1796875 C41.1924826 71.19501495 41.18965271 70.21034241 41.18673706 69.1958313 C41.17565195 66.08875739 41.15056991 62.98198496 41.125 59.875 C41.11495509 57.75260837 41.1058319 55.63021216 41.09765625 53.5078125 C41.07575099 48.33842769 41.04130328 43.16926474 41 38 C39.94868896 37.68474365 38.89737793 37.3694873 37.81420898 37.04467773 C30.3607788 34.78187769 23.06765692 32.51487806 16.0625 29.0625 C15.35722168 28.72476563 14.65194336 28.38703125 13.92529297 28.0390625 C9.22704854 25.74142047 4.85871913 23.17306452 0.6640625 20.03125 C-3.67533192 17.34204783 -7.08359782 20.77216608 -10.75 23.125 Z " fill="#46BB46" transform="translate(811,781)"/>
<path d="M0 0 C4.95433181 0.59144736 9.17512336 2.15028269 13.6875 4.1875 C14.39156982 4.50283691 15.09563965 4.81817383 15.82104492 5.14306641 C26.37207819 9.9268435 35.30340676 15.26249453 44 23 C44.77214844 23.67675781 45.54429687 24.35351562 46.33984375 25.05078125 C73.32267508 50.23159573 79.65979664 91.11506471 80.88671875 126.14453125 C80.94279297 128.05298828 80.94279297 128.05298828 81 130 C77.38568303 129.44685236 74.94921849 128.5597041 71.9375 126.5 C69.29150672 124.69758082 67.15332829 123.61802425 64 123 C64 122.34 64 121.68 64 121 C63.154375 120.9175 62.30875 120.835 61.4375 120.75 C58.11822655 120.02579488 55.92013217 118.86534142 53.05078125 117.109375 C49.72792899 115.31187016 46.18444733 114.17649859 42.625 112.93359375 C39.3504127 111.76897118 36.19406127 110.3688834 33 109 C30.09294497 107.93488066 27.17865874 106.89386097 24.2578125 105.8671875 C22 105 22 105 21 104 C20.87840901 102.62466661 20.82028748 101.24362588 20.7890625 99.86328125 C20.74978638 98.5494043 20.74978638 98.5494043 20.7097168 97.20898438 C20.68176025 96.25314453 20.65380371 95.29730469 20.625 94.3125 C20.18412737 82.73463727 18.84145789 71.43196422 17 60 C16.85159668 59.07123047 16.70319336 58.14246094 16.55029297 57.18554688 C13.58631688 38.99308284 9.20805992 21.97381852 2 5 C1.3291083 3.33502957 0.66072359 1.66903162 0 0 Z " fill="#FAFCFA" transform="translate(688,210)"/>
<path d="M0 0 C-1.02246859 2.55617148 -2.04534011 5.11203608 -3.078125 7.6640625 C-15.45900121 38.94640973 -20.84048699 71.45408904 -22 105 C-23.41539062 105.45439453 -23.41539062 105.45439453 -24.859375 105.91796875 C-42.04477951 111.497821 -58.44581027 118.767122 -74.25317383 127.51098633 C-78.79508403 130 -78.79508403 130 -81 130 C-83.17476069 96.7744895 -73.28042448 56.30345441 -51.4375 30.66015625 C-40.36157724 18.57249055 -17.78907252 0 0 0 Z " fill="#FAFDFB" transform="translate(554,210)"/>
<path d="M0 0 C8.38152086 5.98020359 14.0137153 12.73752903 16 23 C17.0607971 33.53725117 15.11823084 42.7046201 8.8125 51.375 C2.56281525 57.2080391 -4.95996531 61.55789169 -13.5625 62.3125 C-18.125413 63.2250826 -19.3375326 64.15421376 -22 68 C-25.28349593 78.76561326 -26.73691904 90.24571143 -28.6875 101.3125 C-29.01076349 103.13221553 -29.33432909 104.95187741 -29.65820312 106.77148438 C-30.44283839 111.18029175 -31.22128511 115.59012691 -32 120 C-37.61 120 -43.22 120 -49 120 C-49.12359202 112.11635054 -49.21433943 104.23326491 -49.2746582 96.34887695 C-49.29697994 93.66661546 -49.33176794 90.9849458 -49.37719727 88.30297852 C-49.43784525 84.44790745 -49.46621127 80.5937423 -49.48828125 76.73828125 C-49.51408768 75.53915604 -49.5398941 74.34003082 -49.56648254 73.10456848 C-49.56923943 64.92281756 -49.56923943 64.92281756 -47.87695312 62.17938232 C-46.51098633 60.84204102 -46.51098633 60.84204102 -44 59 C-43.22522498 56.82826304 -43.22522498 56.82826304 -43.375 54.625 C-43.36210938 53.91601562 -43.34921875 53.20703125 -43.3359375 52.4765625 C-44.03537578 49.86806916 -44.83548985 48.85353048 -46.5078125 46.79296875 C-49.69947746 42.54806576 -49.6969885 38.85922162 -49.5 33.6875 C-49.4808252 32.84662842 -49.46165039 32.00575684 -49.44189453 31.1394043 C-48.9961199 18.69265361 -45.19481635 10.70493068 -36.125 2.1875 C-25.61708222 -6.49640186 -11.91321255 -6.0047729 0 0 Z " fill="#F8FCF8" transform="translate(640,904)"/>
<path d="M0 0 C5.42402066 -0.36160138 5.42402066 -0.36160138 7.7421875 1.09375 C9.47414752 3.71858382 10.16224186 6.51073697 11.125 9.5 C13.02760595 14.05515226 13.02760595 14.05515226 16.89111328 16.84863281 C20.63432021 17.82161455 24.35296989 18.19772732 28.19921875 18.5078125 C32 19 32 19 34.0078125 20.38671875 C35 22 35 22 35.1875 24.6875 C33.07175283 30.58932105 28.12999707 34.58000195 23 38 C23.144375 38.9178125 23.28875 39.835625 23.4375 40.78125 C25.52253429 54.56564337 25.52253429 54.56564337 25 60 C22 62 22 62 19.71875 61.85546875 C15.14493712 60.41629487 11.24656668 57.76166103 7.15625 55.30078125 C4.14917465 53.70371995 4.14917465 53.70371995 1.44140625 54.59765625 C0.63574219 55.06042969 -0.16992188 55.52320313 -1 56 C-1.90878906 56.49757813 -2.81757812 56.99515625 -3.75390625 57.5078125 C-5.63051214 58.58836165 -7.50550905 59.67170982 -9.37890625 60.7578125 C-12 62 -12 62 -16 62 C-18.36077123 58.45884315 -18.128324 57.48581656 -17.6875 53.375 C-17.5946875 52.29992187 -17.501875 51.22484375 -17.40625 50.1171875 C-17 47 -17 47 -16.28125 44.6328125 C-15.55018562 42.0067523 -15.30673846 40.66706986 -16 38 C-18.2718152 35.09685729 -20.96429433 32.62969919 -23.76831055 30.24804688 C-25.4375 28.796875 -25.4375 28.796875 -28 26 C-28 22.50345722 -27.47036837 21.47036837 -25 19 C-19.0747161 17.40813268 -13.11764697 16.72810458 -7 17 C-6.89816406 16.30519531 -6.79632812 15.61039063 -6.69140625 14.89453125 C-5.88282994 11.50947448 -4.53324287 8.77712981 -2.9375 5.6875 C-2.38964844 4.61886719 -1.84179688 3.55023437 -1.27734375 2.44921875 C-0.85582031 1.64097656 -0.43429687 0.83273437 0 0 Z " fill="#47BB46" transform="translate(805,821)"/>
<path d="M0 0 C5.87048299 1.9680738 10.26390769 6.52781538 13 12 C13.52779267 18.2117137 13.74403643 23.758349 10 29 C5.60486149 33.40744982 1.42728516 36.27683356 -4.875 36.375 C-10.45302436 36.2439451 -13.55075166 34.54908183 -17.4375 30.50390625 C-21.93543364 25.37983981 -22.35543755 21.30856656 -22.27734375 14.72265625 C-21.73772629 9.42528487 -18.7153411 6.51014806 -14.875 3.1875 C-9.96125837 -0.55121646 -6.06375395 -0.64643623 0 0 Z " fill="#45BA45" transform="translate(628,915)"/>
<path d="M0 0 C3.16854747 0.57691478 4.78226459 1.41646887 7.015625 3.72265625 C7.54414062 4.26083984 8.07265625 4.79902344 8.6171875 5.35351562 C9.15601563 5.91748047 9.69484375 6.48144531 10.25 7.0625 C10.80429687 7.63033203 11.35859375 8.19816406 11.9296875 8.78320312 C13.29334214 10.18212469 14.64760417 11.59019114 16 13 C15.34 13.66 14.68 14.32 14 15 C11.66265901 12.69152056 9.33081534 10.37756659 7 8.0625 C6.33226562 7.40314453 5.66453125 6.74378906 4.9765625 6.06445312 C4.34492187 5.43603516 3.71328125 4.80761719 3.0625 4.16015625 C2.47597656 3.57886963 1.88945313 2.99758301 1.28515625 2.39868164 C0 1 0 1 0 0 Z " fill="#4CC04D" transform="translate(538,677)"/>
<path d="M0 0 C0.33 0 0.66 0 1 0 C1.0269501 2.93756119 1.04681474 5.87487555 1.0625 8.8125 C1.07087891 9.64587891 1.07925781 10.47925781 1.08789062 11.33789062 C1.09111328 12.14033203 1.09433594 12.94277344 1.09765625 13.76953125 C1.10289307 14.50792236 1.10812988 15.24631348 1.11352539 16.00708008 C1 18 1 18 0 21 C-0.66 21 -1.32 21 -2 21 C-1.85845864 18.43719792 -1.71191438 15.87484515 -1.5625 13.3125 C-1.52318359 12.59126953 -1.48386719 11.87003906 -1.44335938 11.12695312 C-1.21814322 7.33292718 -0.87160695 3.71348508 0 0 Z " fill="#52C253" transform="translate(777,464)"/>
<path d="M0 0 C0.99 0 1.98 0 3 0 C2.89300781 1.27617187 2.78601563 2.55234375 2.67578125 3.8671875 C2.55387254 5.53639901 2.43282323 7.20567345 2.3125 8.875 C2.23966797 9.71675781 2.16683594 10.55851562 2.09179688 11.42578125 C2.03701172 12.23144531 1.98222656 13.03710938 1.92578125 13.8671875 C1.86817627 14.61081543 1.81057129 15.35444336 1.7512207 16.12060547 C1.83331787 16.74080566 1.91541504 17.36100586 2 18 C2.99 18.66 3.98 19.32 5 20 C3.35 20 1.7 20 0 20 C0 13.4 0 6.8 0 0 Z " fill="#6CCD6D" transform="translate(555,288)"/>
<path d="M0 0 C0.33 0 0.66 0 1 0 C3.29612756 14.59681093 3.29612756 14.59681093 3 22 C1.01489942 20.36292167 0.08152696 19.49903853 -0.34057617 16.9152832 C-0.32486572 16.13499756 -0.30915527 15.35471191 -0.29296875 14.55078125 C-0.28330078 13.70322266 -0.27363281 12.85566406 -0.26367188 11.98242188 C-0.23853516 11.10134766 -0.21339844 10.22027344 -0.1875 9.3125 C-0.17396484 8.41982422 -0.16042969 7.52714844 -0.14648438 6.60742188 C-0.11114079 4.40433834 -0.06180493 2.20247418 0 0 Z " fill="#6ACD6B" transform="translate(788,295)"/>
<path d="M0 0 C4.52615993 3.67832017 8.39424999 7.41086363 12 12 C9 12 9 12 6.73828125 10.13671875 C5.93777344 9.32847656 5.13726563 8.52023437 4.3125 7.6875 C3.50425781 6.88699219 2.69601562 6.08648438 1.86328125 5.26171875 C0 3 0 3 0 0 Z " fill="#4ABF4C" transform="translate(562,698)"/>
<path d="M0 0 C0.66 0.33 1.32 0.66 2 1 C1.49855469 1.38800781 0.99710937 1.77601563 0.48046875 2.17578125 C-1.24891882 3.92975791 -1.24891882 3.92975791 -1.07421875 6.48046875 C-0.88279297 7.82044922 -0.88279297 7.82044922 -0.6875 9.1875 C-0.56761719 10.08855469 -0.44773437 10.98960937 -0.32421875 11.91796875 C-0.21722656 12.60503906 -0.11023438 13.29210937 0 14 C-0.66 14 -1.32 14 -2 14 C-2.33 14.66 -2.66 15.32 -3 16 C-3 11.05 -3 6.1 -3 1 C-2.01 0.67 -1.02 0.34 0 0 Z " fill="#F1FAF2" transform="translate(490,431)"/>
<path d="M0 0 C0.66 0.33 1.32 0.66 2 1 C-0.50102448 3.76899139 -2.19447304 5.64323185 -6 6 C-8.25 5.5625 -8.25 5.5625 -10 5 C-10 5.66 -10 6.32 -10 7 C-10.99 7.33 -11.98 7.66 -13 8 C-13.66 7.34 -14.32 6.68 -15 6 C-12.54524486 4.96971956 -10.08685649 3.95054496 -7.625 2.9375 C-6.57699219 2.49567383 -6.57699219 2.49567383 -5.5078125 2.04492188 C-3.69495092 1.30408902 -1.84876857 0.64603036 0 0 Z " fill="#63CA63" transform="translate(520,318)"/>
<path d="M0 0 C0.33 0.99 0.66 1.98 1 3 C1.66 3 2.32 3 3 3 C3.09038099 8.15171623 2.84681133 12.91913204 2 18 C0.68 17.67 -0.64 17.34 -2 17 C-1.01 17 -0.02 17 1 17 C0.67 11.39 0.34 5.78 0 0 Z " fill="#66C965" transform="translate(684,290)"/>
<path d="M0 0 C0.66 0.33 1.32 0.66 2 1 C1.2575 1.721875 0.515 2.44375 -0.25 3.1875 C-3.01267269 5.90711047 -3.01267269 5.90711047 -5.1875 8.8125 C-5.785625 9.534375 -6.38375 10.25625 -7 11 C-7.66 11 -8.32 11 -9 11 C-7.59928507 5.70841026 -4.14512755 3.22521956 0 0 Z " fill="#52C352" transform="translate(616,916)"/>
<path d="M0 0 C0.99 0.66 1.98 1.32 3 2 C2.55149342 3.81495662 2.09090429 5.62693134 1.625 7.4375 C1.24214844 8.95150391 1.24214844 8.95150391 0.8515625 10.49609375 C0 13 0 13 -2 14 C-1.85795259 12.41632253 -1.71119847 10.83306682 -1.5625 9.25 C-1.48128906 8.36828125 -1.40007813 7.4865625 -1.31640625 6.578125 C-1.03761535 4.30649548 -0.61209423 2.20148177 0 0 Z " fill="#4FC251" transform="translate(540,247)"/>
<path d="M0 0 C0.66 0.33 1.32 0.66 2 1 C0.02 3.97 -1.96 6.94 -4 10 C-4.99 9.67 -5.98 9.34 -7 9 C-4.69 6.03 -2.38 3.06 0 0 Z " fill="#4AC04B" transform="translate(297,717)"/>
<path d="M0 0 C0.33 0 0.66 0 1 0 C1.06058594 0.74765625 1.12117188 1.4953125 1.18359375 2.265625 C1.26738281 3.25046875 1.35117187 4.2353125 1.4375 5.25 C1.51871094 6.22453125 1.59992188 7.1990625 1.68359375 8.203125 C1.92333387 10.9151201 1.92333387 10.9151201 2.5625 13.15625 C3.21327501 15.89880184 2.55745291 18.27467466 2 21 C1.67 21 1.34 21 1 21 C-0.32719886 14.03220597 -0.08825381 7.07011089 0 0 Z " fill="#62C964" transform="translate(463,466)"/>
<path d="M0 0 C0.9435441 2.53899138 1.16906025 3.60909275 0.07421875 6.140625 C-0.61220703 7.18476562 -0.61220703 7.18476562 -1.3125 8.25 C-1.76238281 8.95640625 -2.21226562 9.6628125 -2.67578125 10.390625 C-3.11277344 10.92171875 -3.54976562 11.4528125 -4 12 C-4.66 12 -5.32 12 -6 12 C-4.43358249 7.69235185 -2.31663844 3.93828536 0 0 Z " fill="#56C658" transform="translate(692,750)"/>
<path d="M0 0 C3 0 3 0 4.5 1.42578125 C4.995 2.04839844 5.49 2.67101562 6 3.3125 C7.90178008 5.67486744 9.81875816 7.89016786 12 10 C8.07290865 10 7.1810287 8.72099538 4.3125 6.125 C3.50425781 5.40570312 2.69601562 4.68640625 1.86328125 3.9453125 C0 2 0 2 0 0 Z " fill="#49C04A" transform="translate(578,715)"/>
<path d="M0 0 C0.99 0.66 1.98 1.32 3 2 C1.35 2.33 -0.3 2.66 -2 3 C-2.33 3.99 -2.66 4.98 -3 6 C-5.31 6.33 -7.62 6.66 -10 7 C-6.80331012 4.3513141 -3.60513403 2.06007659 0 0 Z " fill="#4FC14F" transform="translate(695,578)"/>
<path d="M0 0 C1.140625 1.734375 1.140625 1.734375 2 4 C1.171875 6.140625 1.171875 6.140625 -0.25 8.25 C-0.70890625 8.95640625 -1.1678125 9.6628125 -1.640625 10.390625 C-2.08921875 10.92171875 -2.5378125 11.4528125 -3 12 C-3.66 12 -4.32 12 -5 12 C-3.68938409 7.76570244 -2.05643741 3.92592596 0 0 Z " fill="#5AC55C" transform="translate(719,698)"/>
<path d="M0 0 C0.33 0.99 0.66 1.98 1 3 C-0.98 4.98 -2.96 6.96 -5 9 C-5.99 8.67 -6.98 8.34 -8 8 C-5.36 5.36 -2.72 2.72 0 0 Z " fill="#4DC250" transform="translate(647,697)"/>
<path d="M0 0 C0.33 0 0.66 0 1 0 C0.67 2.64 0.34 5.28 0 8 C-0.99 8.33 -1.98 8.66 -3 9 C-3.33 9.99 -3.66 10.98 -4 12 C-3.45660208 7.43545749 -2.20536179 4.0271824 0 0 Z " fill="#5AC95B" transform="translate(593,166)"/>
<path d="M0 0 C4.41889613 1.35021826 6.34345343 3.26115668 9 7 C6 7 6 7 4.39453125 5.46875 C3.87246094 4.8190625 3.35039063 4.169375 2.8125 3.5 C2.28269531 2.8503125 1.75289062 2.200625 1.20703125 1.53125 C0.80871094 1.0259375 0.41039062 0.520625 0 0 Z " fill="#57C455" transform="translate(571,678)"/>
<path d="M0 0 C6.625 -0.125 6.625 -0.125 10 1 C10.33 1.99 10.66 2.98 11 4 C7.37 3.01 3.74 2.02 0 1 C0 0.67 0 0.34 0 0 Z " fill="#64C464" transform="translate(695,335)"/>
<path d="M0 0 C0.87491004 2.4497481 1.12900603 3.63448293 0.25 6.125 C-1 8 -1 8 -4 10 C-2.8905928 6.51329166 -1.73662334 3.22515763 0 0 Z " fill="#D3F1D4" transform="translate(749,691)"/>
<path d="M0 0 C0.99 0.66 1.98 1.32 3 2 C1.71034824 3.37562854 0.37310707 4.70766393 -1 6 C-1.66 6 -2.32 6 -3 6 C-2.42655063 3.13275314 -2.1385485 2.1385485 0 0 Z " fill="#4CC24F" transform="translate(750,805)"/>
<path d="M0 0 C0.6875 1.6875 0.6875 1.6875 1 4 C-0.3125 6.75 -0.3125 6.75 -2 9 C-2.66 9 -3.32 9 -4 9 C-2.94124926 5.59687262 -1.99097846 2.98646769 0 0 Z " fill="#56C859" transform="translate(701,733)"/>
<path d="M0 0 C0.99 0.33 1.98 0.66 3 1 C1.35 2.65 -0.3 4.3 -2 6 C-2.99 5.67 -3.98 5.34 -5 5 C-3.35 3.35 -1.7 1.7 0 0 Z " fill="#4FC452" transform="translate(490,219)"/>
<path d="M0 0 C0.99 0 1.98 0 3 0 C3 0.66 3 1.32 3 2 C4.32 2.33 5.64 2.66 7 3 C7 3.66 7 4.32 7 5 C4.0625 4.1875 4.0625 4.1875 1 3 C0.67 2.01 0.34 1.02 0 0 Z " fill="#4EBD4E" transform="translate(818,804)"/>
<path d="M0 0 C0.99 0.66 1.98 1.32 3 2 C1.02 3.32 -0.96 4.64 -3 6 C-3.66 5.34 -4.32 4.68 -5 4 C-3.35 2.68 -1.7 1.36 0 0 Z " fill="#4CBE4E" transform="translate(331,682)"/>
<path d="M0 0 C0.99 0.33 1.98 0.66 3 1 C0.03 3.475 0.03 3.475 -3 6 C-3.66 5.67 -4.32 5.34 -5 5 C-3.35 3.35 -1.7 1.7 0 0 Z " fill="#4FC251" transform="translate(697,649)"/>
<path d="M0 0 C2.97 0.33 5.94 0.66 9 1 C9 1.33 9 1.66 9 2 C5.37 2.33 1.74 2.66 -2 3 C-1.34 2.67 -0.68 2.34 0 2 C0 1.34 0 0.68 0 0 Z " fill="#64CA69" transform="translate(598,386)"/>
<path d="M0 0 C2.29633824 3.44450737 2.54016485 5.93812283 3 10 C2.67 9.34 2.34 8.68 2 8 C1.34 8 0.68 8 0 8 C0 5.36 0 2.72 0 0 Z " fill="#65CA67" transform="translate(795,367)"/>
<path d="M0 0 C2.97 0.495 2.97 0.495 6 1 C4.68 2.32 3.36 3.64 2 5 C1.34 3.35 0.68 1.7 0 0 Z " fill="#DDF1DF" transform="translate(688,210)"/>
</svg>
