<?xml version="1.0" encoding="UTF-8"?>
<svg version="1.1" xmlns="http://www.w3.org/2000/svg" width="50" height="50">
<path d="M0 0 C5.56340585 3.36669624 9.53349183 8.25193794 11.5 14.4375 C12.30594257 22.2813829 12.59671889 30.02934467 7.5 36.4375 C3.04867668 41.14197914 -1.19064516 44.09747071 -7.76953125 44.7734375 C-16.04371997 44.8646634 -22.08428015 44.61560264 -28.2421875 38.7890625 C-34.17397269 32.28964236 -34.96296445 26.57688134 -34.80859375 17.88671875 C-34.22339005 11.3457711 -31.85547257 7.43687235 -27.0625 3.0625 C-19.84507341 -2.93248543 -8.52200107 -3.84066973 0 0 Z M-17.5 13.4375 C-16.51 13.4375 -15.52 13.4375 -14.5 13.4375 C-14.17 13.1075 -13.84 12.7775 -13.5 12.4375 C-11.83382885 12.39686168 -10.16611905 12.394779 -8.5 12.4375 C-8.94955113 17.11283173 -9.52689641 19.81806955 -12.5 23.4375 C-12.5 24.4275 -12.5 25.4175 -12.5 26.4375 C-11.84 26.4375 -11.18 26.4375 -10.5 26.4375 C-9.6533966 25.04967515 -8.82324661 23.65180603 -8 22.25 C-7.5359375 21.47269531 -7.071875 20.69539063 -6.59375 19.89453125 C-5.37801167 17.16346194 -5.20533073 15.39418149 -5.5 12.4375 C-6.58333333 10.52083333 -6.58333333 10.52083333 -8.5 9.4375 C-13.00894652 8.62820191 -14.63892506 10.04659637 -17.5 13.4375 Z M-12.5 30.4375 C-12.5 31.4275 -12.5 32.4175 -12.5 33.4375 C-11.84 33.4375 -11.18 33.4375 -10.5 33.4375 C-10.5 32.4475 -10.5 31.4575 -10.5 30.4375 C-11.16 30.4375 -11.82 30.4375 -12.5 30.4375 Z " fill="#000000" transform="translate(36.5,3.5625)"/>
</svg>
