<svg width="128" height="128" viewBox="0 0 128 128" fill="none" xmlns="http://www.w3.org/2000/svg">

  <path d="M44 28H84V48C84 62 75 74 64 74C53 74 44 62 44 48V28Z" fill="#4CAF50"></path>

  <path d="M44 34H28C28 50 38 58 50 60"
      stroke="#4CAF50"
      stroke-width="5"></path>

  <path d="M84 34H100C100 50 90 58 78 60"
      stroke="#4CAF50"
      stroke-width="5"></path>

  <rect x="58" y="74" width="12" height="18" fill="#4CAF50"></rect>

  <rect x="46" y="92" width="36" height="8" rx="4" fill="#4CAF50"></rect>

  <path d="M64 18L68 28L79 29L71 36L73 47L64 42L55 47L57 36L49 29L60 28L64 18Z"
      fill="#4CAF50"></path>

</svg>