<svg width="285" height="352" viewBox="0 0 285 352" fill="none" xmlns="http://www.w3.org/2000/svg">
<path d="M52.3579 260.666C55.1967 262.394 58.9669 262.457 62.5221 261.212L65.2087 242.406L52.6713 239.2L52.3579 260.666Z" fill="#F0BAB9"/>
<path d="M72.5877 278.666C72.9012 278.988 72.7131 281.352 72.328 281.88C71.943 282.409 69.7848 284.2 65.8086 284.272C62.0206 284.334 58.6445 283.645 56.531 282.113C54.4176 280.582 53.4057 278.979 53.3072 276.812C53.2086 274.645 53.5669 272.594 52.6355 270.883C51.7042 269.173 50.5848 267.74 50.2982 266.898C49.9618 265.373 49.9618 263.794 50.2982 262.269L72.5877 278.666Z" fill="#1C293D"/>
<path d="M63.3906 260.424C63.4083 261.24 63.5225 262.052 63.7309 262.842C64.2192 264.535 64.9077 266.165 65.7817 267.695C66.2164 268.494 66.704 269.263 67.2414 269.997C68.3071 271.421 69.6682 272.612 70.8235 273.982C72.0498 275.28 72.7873 276.964 72.91 278.746C72.91 281.719 69.6414 282.552 67.1429 282.857C64.4279 283.188 61.6731 282.903 59.0832 282.024C57.7277 281.59 56.5261 280.775 55.6223 279.676C54.7185 278.577 54.1509 277.24 53.9877 275.827C53.8891 274.994 53.9877 274.161 53.9339 273.328C53.7109 271.418 53.0153 269.592 51.91 268.018C51.2674 267.107 50.7269 266.128 50.2981 265.098C49.6175 263.227 50.3518 261.194 50.9429 259.394C51.4533 257.845 51.8384 255.973 52.4115 256.152C52.4115 256.466 52.4115 257.164 52.4115 257.164C52.5727 257.513 52.9668 257.764 53.0653 258.176C53.1582 258.601 53.287 259.018 53.4503 259.421C53.6942 260.044 54.1261 260.576 54.6862 260.943C54.7847 259.824 54.8832 258.704 54.9727 257.594C54.9473 257.418 54.9624 257.238 55.017 257.068C55.0715 256.898 55.164 256.743 55.2875 256.614C55.4109 256.486 55.5621 256.387 55.7294 256.325C55.8968 256.264 56.076 256.242 56.2533 256.26C58.354 255.876 60.5008 255.812 62.6205 256.072C62.7802 256.084 62.9359 256.127 63.0788 256.199C63.2217 256.271 63.349 256.371 63.4533 256.492C63.5627 256.73 63.597 256.996 63.5518 257.254C63.441 258.307 63.3872 259.365 63.3906 260.424Z" fill="#8878EE"/>
<path opacity="0.2" d="M63.3906 260.424C63.4083 261.24 63.5225 262.052 63.7309 262.842C64.2192 264.535 64.9077 266.165 65.7817 267.695C66.2164 268.494 66.704 269.263 67.2414 269.997C68.3071 271.421 69.6682 272.612 70.8235 273.982C72.0498 275.28 72.7873 276.964 72.91 278.746C72.91 281.719 69.6414 282.552 67.1429 282.857C64.4279 283.188 61.6731 282.903 59.0832 282.024C57.7277 281.59 56.5261 280.775 55.6223 279.676C54.7185 278.577 54.1509 277.24 53.9877 275.827C53.8891 274.994 53.9877 274.161 53.9339 273.328C53.7109 271.418 53.0153 269.592 51.91 268.018C51.2674 267.107 50.7269 266.128 50.2981 265.098C49.6175 263.227 50.3518 261.194 50.9429 259.394C51.4533 257.845 51.8384 255.973 52.4115 256.152C52.4115 256.466 52.4115 257.164 52.4115 257.164C52.5727 257.513 52.9668 257.764 53.0653 258.176C53.1582 258.601 53.287 259.018 53.4503 259.421C53.6942 260.044 54.1261 260.576 54.6862 260.943C54.7847 259.824 54.8832 258.704 54.9727 257.594C54.9473 257.418 54.9624 257.238 55.017 257.068C55.0715 256.898 55.164 256.743 55.2875 256.614C55.4109 256.486 55.5621 256.387 55.7294 256.325C55.8968 256.264 56.076 256.242 56.2533 256.26C58.354 255.876 60.5008 255.812 62.6205 256.072C62.7802 256.084 62.9359 256.127 63.0788 256.199C63.2217 256.271 63.349 256.371 63.4533 256.492C63.5627 256.73 63.597 256.996 63.5518 257.254C63.441 258.307 63.3872 259.365 63.3906 260.424Z" fill="#09111F"/>
<path d="M66.1492 268.341C65.0925 267.445 62.6209 267.311 61.2597 267.382C59.8807 267.429 58.5352 267.82 57.3462 268.52C57.1706 268.627 56.9634 268.67 56.7595 268.642C56.5557 268.615 56.3676 268.518 56.2268 268.367C56.1441 268.28 56.0815 268.176 56.0434 268.062C56.0053 267.948 55.9926 267.827 56.0063 267.707C56.02 267.588 56.0596 267.473 56.1225 267.37C56.1853 267.268 56.2698 267.18 56.3701 267.114C57.6861 266.256 59.2148 265.782 60.7851 265.744C64.1701 265.69 65.0657 266.299 65.0657 266.299C65.0657 266.299 66.5343 267.373 66.1492 268.341Z" fill="#637083"/>
<path d="M68.5222 271.511C67.1789 270.615 64.4566 270.615 63.0954 270.66C61.7417 270.724 60.4288 271.144 59.2894 271.878C59.1128 271.987 58.9037 272.032 58.6979 272.004C58.4921 271.976 58.3023 271.878 58.161 271.726C58.0772 271.638 58.0139 271.534 57.9756 271.419C57.9373 271.304 57.925 271.183 57.9395 271.063C57.9541 270.943 57.9952 270.827 58.0599 270.725C58.1245 270.623 58.2111 270.536 58.3133 270.472C59.6369 269.566 61.1885 269.051 62.7909 268.985C66.1312 268.923 66.964 269.657 66.964 269.657C67.348 269.826 67.6881 270.082 67.9582 270.403C68.2283 270.724 68.4213 271.103 68.5222 271.511Z" fill="#637083"/>
<path d="M59.6297 262.492C61.044 262.323 62.478 262.521 63.7939 263.066C64.3581 263.433 64.6894 264.373 64.3043 264.588C63.1429 264.049 61.8661 263.806 60.5879 263.881C59.3364 263.936 58.1036 264.206 56.9432 264.678C56.6476 264.785 56.3073 264.946 56.0476 265.089C55.952 265.139 55.8472 265.167 55.7399 265.174C55.6325 265.18 55.525 265.165 55.4241 265.128C55.3232 265.091 55.231 265.033 55.1533 264.959C55.0757 264.884 55.0143 264.795 54.973 264.695C54.9168 264.53 54.9201 264.35 54.9822 264.187C55.0443 264.023 55.1614 263.886 55.3133 263.8C56.6427 263.062 58.1143 262.616 59.6297 262.492Z" fill="#637083"/>
<path d="M87.6953 253.6C89.8804 259.071 93.3013 257.388 98.5132 254.236L99.3013 235.555L86.0386 234.328L87.6953 253.6Z" fill="#F0BAB9"/>
<path d="M118.519 266.773C118.761 267.652 118.658 268.59 118.232 269.397C117.821 270.149 113.674 272.209 108.256 271.546C104.239 271.051 100.429 269.486 97.2235 267.015C95.2265 265.528 93.0862 265.161 90.3996 264.856C87.7131 264.552 85.6981 263.621 85.1698 262.331C84.6414 261.042 85.4474 258.91 85.4474 258.91L118.519 266.773Z" fill="#1C293D"/>
<path d="M97.4205 249.552C97.9101 249.449 98.3919 249.311 98.8623 249.14C99.1252 249.043 99.4143 249.043 99.6772 249.14C100.017 249.293 100.125 249.705 100.206 250.036C100.282 250.846 100.438 251.647 100.671 252.427C101.038 253.074 101.524 253.645 102.104 254.111C103.395 255.266 104.802 256.283 106.304 257.146C108.032 258.203 109.734 259.036 111.516 259.958C113.298 260.881 115.797 261.543 117.212 262.645C119.262 264.203 119.343 267.83 116.835 269.12C114.677 270.239 109.089 271.278 103.403 269.326C100.295 268.26 96.9817 264.705 92.8623 264.158C90.2384 263.818 86.7458 263.406 85.1608 261.32C84.5876 260.424 85.0891 257.827 85.5548 254.791C85.9757 252.105 86.3608 247.806 87.2294 248.093L87.2921 248.917L88.3488 250.179C88.5803 250.426 88.8255 250.659 89.0832 250.878C89.3659 251.209 89.6648 251.525 89.9787 251.827C90.4045 252.192 90.9337 252.414 91.4921 252.463C91.7569 252.48 92.0209 252.421 92.2533 252.293C92.7011 252.042 92.7638 251.451 93.1488 251.084C93.5653 250.656 94.0651 250.317 94.6175 250.09C95.3846 249.817 96.1867 249.654 96.9996 249.606C97.1409 249.597 97.2815 249.579 97.4205 249.552Z" fill="#8878EE"/>
<path opacity="0.2" d="M97.4205 249.552C97.9101 249.449 98.3919 249.311 98.8623 249.14C99.1252 249.043 99.4143 249.043 99.6772 249.14C100.017 249.293 100.125 249.705 100.206 250.036C100.282 250.846 100.438 251.647 100.671 252.427C101.038 253.074 101.524 253.645 102.104 254.111C103.395 255.266 104.802 256.283 106.304 257.146C108.032 258.203 109.734 259.036 111.516 259.958C113.298 260.881 115.797 261.543 117.212 262.645C119.262 264.203 119.343 267.83 116.835 269.12C114.677 270.239 109.089 271.278 103.403 269.326C100.295 268.26 96.9817 264.705 92.8623 264.158C90.2384 263.818 86.7458 263.406 85.1608 261.32C84.5876 260.424 85.0891 257.827 85.5548 254.791C85.9757 252.105 86.3608 247.806 87.2294 248.093L87.2921 248.917L88.3488 250.179C88.5803 250.426 88.8255 250.659 89.0832 250.878C89.3659 251.209 89.6648 251.525 89.9787 251.827C90.4045 252.192 90.9337 252.414 91.4921 252.463C91.7569 252.48 92.0209 252.421 92.2533 252.293C92.7011 252.042 92.7638 251.451 93.1488 251.084C93.5653 250.656 94.0651 250.317 94.6175 250.09C95.3846 249.817 96.1867 249.654 96.9996 249.606C97.1409 249.597 97.2815 249.579 97.4205 249.552Z" fill="#09111F"/>
<path d="M103.931 255.552C103.759 255.18 103.496 254.857 103.168 254.612C102.84 254.366 102.456 254.206 102.05 254.146C100.868 253.86 98.71 254.63 97.3398 255.642C97.2097 255.737 97.1047 255.862 97.0341 256.006C96.9635 256.151 96.9293 256.31 96.9346 256.471C96.9399 256.632 96.9845 256.789 97.0645 256.929C97.1445 257.068 97.2575 257.186 97.3936 257.272C97.5662 257.376 97.7661 257.426 97.9674 257.415C98.1687 257.403 98.3619 257.332 98.5219 257.209C100.037 255.967 101.98 255.372 103.931 255.552Z" fill="#637083"/>
<path d="M107.522 257.854C107.281 257.473 106.951 257.155 106.562 256.928C106.172 256.7 105.734 256.569 105.283 256.546C103.436 256.528 101.63 257.095 100.125 258.167C99.9976 258.255 99.8934 258.373 99.8214 258.51C99.7495 258.648 99.7119 258.8 99.7119 258.955C99.7119 259.11 99.7495 259.263 99.8214 259.4C99.8934 259.537 99.9976 259.655 100.125 259.743C100.293 259.844 100.487 259.892 100.683 259.879C100.878 259.866 101.065 259.794 101.218 259.672C102.064 258.913 103.07 258.356 104.162 258.041C105.253 257.726 106.402 257.662 107.522 257.854Z" fill="#637083"/>
<path d="M111.516 259.949C111.237 259.593 110.885 259.302 110.483 259.095C110.081 258.888 109.639 258.77 109.188 258.749C107.405 258.763 105.672 259.34 104.235 260.397C104.111 260.489 104.011 260.61 103.943 260.75C103.876 260.89 103.843 261.044 103.849 261.199C103.854 261.354 103.897 261.505 103.974 261.64C104.05 261.775 104.159 261.889 104.289 261.973C104.452 262.083 104.646 262.136 104.841 262.124C105.037 262.113 105.224 262.038 105.373 261.91C106.172 261.126 107.144 260.54 108.211 260.199C109.278 259.859 110.41 259.773 111.516 259.949Z" fill="#637083"/>
<path d="M52.0086 210.248C52.4116 201.23 54.328 196.537 54.5967 194.039C54.5967 194.039 55.331 144.427 56.54 129.373L100.958 127.483C101.612 143.603 102.203 186.91 101.853 192.642C101.522 198.131 99.2922 245.746 99.2922 245.746C93.0236 247.707 86.334 244.851 86.334 244.851C86.334 244.851 82.6086 217.761 81.9997 211.788C81.5674 206.415 81.7055 201.012 82.4116 195.668L79.5728 157.098C79.5728 157.098 76.143 187.009 74.4504 198.292C72.5161 211.197 64.1698 251.2 64.1698 251.2C58.1698 252.695 52.331 250.107 52.331 250.107C52.331 250.107 51.4176 223.313 52.0086 210.248Z" fill="#637083"/>
<path d="M79.5815 157.134L80.4233 151.815C83.0114 151.43 89.5666 147.337 93.4442 143.755C90.682 147.935 86.9448 151.38 82.5547 153.794L82.4203 195.686L79.5815 157.134Z" fill="#344051"/>
<path d="M97.7969 101.352C94.779 94.4655 89.585 82.8685 89.585 82.8685L88.2686 64.0625C90.1901 64.1237 92.1066 64.2941 94.0088 64.5729C96.8029 65.0118 101.236 67.6804 103.26 72.7132C104.773 76.4476 112.636 99.2297 112.636 99.2297L126.337 92.0118C129.848 89.7819 131.092 86.0834 133.331 83.9521C135.57 81.8207 137.809 81.4983 140.289 79.7879C142.77 78.0774 143.746 76.7073 144.373 78.4177C145 80.1282 142.224 82.7521 141.686 83.4058C141.149 84.0595 138.454 85.4565 141.892 85.6356C145.331 85.8147 152.289 82.4655 153.955 81.8924C155.621 81.3192 155.478 83.2983 154.609 84.5252C153.74 85.7521 153.651 89.3521 152.2 91.367C150.66 93.5162 149.827 94.4386 146.522 95.7192C143.451 96.9013 137.083 97.2058 133.806 99.0953C130.528 100.985 122.594 108.158 117.301 111.839C110.2 116.782 106.206 117.104 103.421 113.164C100.636 109.224 98.8626 103.779 97.7969 101.352Z" fill="#F0BAB9"/>
<path d="M86.415 63.6596C91.0718 63.3014 96.5613 63.588 99.5971 66.3462C102.024 68.5581 102.937 69.9283 105.642 77.576C107.433 82.7074 111.266 94.5283 111.266 94.5283C106.003 95.7155 101.281 98.6089 97.8329 102.758L89.1016 83.1372L86.415 63.6596Z" fill="#AEA3F4"/>
<path d="M112.636 99.1852C110.276 100.021 108.245 101.59 106.842 103.663C106.842 103.663 107.173 100.081 112.215 97.9404L112.636 99.1852Z" fill="#DE6967"/>
<path d="M75.2654 62.8175C73.0597 62.7266 70.8529 62.9681 68.7191 63.5339C64.6266 64.6175 57.2923 66.6772 57.2923 66.6772C54.9639 67.8862 54.0594 71.916 53.5311 74.2354C51.8475 81.6593 56.2177 98.4145 56.8893 104.943C57.5609 111.471 56.1102 131.468 56.1102 131.468C61.1162 137.271 88.2415 141.122 101.45 131.468C101.45 131.468 102.024 85.5548 100.725 78.9638C98.755 68.9877 95.8266 64.2503 85.5012 63.6503L75.2654 62.8175Z" fill="#8878EE"/>
<path d="M81.0598 38.1906L78.1135 39.8115C77.9097 39.4058 77.8675 38.9379 77.9955 38.5024C78.1235 38.0668 78.4122 37.6961 78.8031 37.4652C78.9978 37.3595 79.2119 37.2943 79.4325 37.2737C79.6531 37.2531 79.8756 37.2774 80.0866 37.3452C80.2975 37.413 80.4925 37.5229 80.6598 37.6682C80.8271 37.8135 80.9631 37.9912 81.0598 38.1906Z" fill="#1C293D"/>
<path d="M93.8746 39.3732L91.188 37.3045C91.3142 37.1228 91.4761 36.9687 91.6638 36.8516C91.8514 36.7345 92.061 36.6568 92.2797 36.6233C92.4984 36.5898 92.7216 36.6011 92.9357 36.6567C93.1499 36.7122 93.3505 36.8108 93.5253 36.9463C93.8812 37.2306 94.1154 37.6398 94.1803 38.0906C94.2452 38.5415 94.1358 39.0001 93.8746 39.3732Z" fill="#1C293D"/>
<path d="M67.5193 28.8145C67.5193 28.8145 64.3492 29.2533 63.185 31.6712C62.182 33.7488 62.5402 38.7637 63.8925 44.2085C64.6566 47.7412 65.7975 51.1818 67.2954 54.4712C67.8246 55.4031 68.6894 56.0982 69.7134 56.4145L69.5432 49.913L69.3104 45.4354C69.3104 45.4354 72.2029 41.4771 72.5253 38.2712C72.9372 34.098 72.0596 32.3876 72.0596 32.3876L67.5193 28.8145Z" fill="#1C293D"/>
<path d="M72.6329 35.0838C72.6447 38.2926 73.929 41.3657 76.2038 43.6288C78.4787 45.8919 81.5584 47.1602 84.7672 47.1555C91.4478 47.1555 96.4627 41.648 96.409 34.9584C96.3553 28.2689 91.3403 22.9137 84.6508 22.9405C81.449 22.9642 78.387 24.2552 76.1347 26.5309C73.8824 28.8067 72.6233 31.882 72.6329 35.0838Z" fill="#1C293D"/>
<path d="M69.543 44.6742C68.4505 45.6234 67.5639 43.1787 66.6505 42.2205C65.7371 41.2622 62.7371 39.9727 61.2774 43.116C59.8177 46.2593 62.5848 50.8175 64.8595 51.6951C65.5461 51.9551 66.3003 51.9763 67.0005 51.7554C67.7007 51.5344 68.3061 51.0842 68.7192 50.4772V64.8055C72.1669 71.0205 78.2475 70.8234 81.4983 70.4742C84.749 70.1249 85.4565 66.7488 83.0833 64.0264V59.5488C84.8895 59.8322 86.7211 59.9193 88.546 59.8085C91.5192 59.3428 93.0236 57.122 93.9192 53.8712C95.352 48.6861 95.9341 39.9817 93.9192 29.9249C90.5878 27.3458 79.0356 27.7757 72.0415 32.2085C72.5878 41.2264 70.5818 43.7339 69.543 44.6742Z" fill="#F0BAB9"/>
<path d="M94.5105 24.9463C94.9604 23.0794 95.1622 21.1614 95.1105 19.2418C95.1105 18.4896 94.9225 17.5761 94.215 17.2896C93.5076 17.003 92.8091 17.5224 92.2001 17.9343C89.621 19.6717 86.415 20.1642 83.3076 20.3343C77.9344 20.6299 69.7225 20.2806 66.9911 26.1642C66.23 27.794 66.0956 29.5134 67.6001 30.6418C68.9414 31.5403 70.4752 32.1109 72.0777 32.3075C74.7643 32.7821 77.4508 33.3731 80.2091 33.7403C82.9673 34.1075 86.2449 34.4657 88.9762 33.6239C91.2777 32.9164 93.615 32.3075 95.3255 30.4806C96.808 28.8876 97.6444 26.7998 97.6717 24.6239C97.6717 24.3194 97.6091 23.9343 97.3046 23.8537C97.1524 23.8346 96.9982 23.8661 96.8658 23.9433L94.5105 24.9463Z" fill="#1C293D"/>
<path d="M83.0565 59.648C83.0565 59.648 76.4118 58.3316 74.1013 57.1047C72.7327 56.3957 71.6093 55.291 70.8774 53.9346C71.2178 55.2897 71.8268 56.5626 72.6685 57.6779C74.3789 59.845 83.0386 61.4122 83.0386 61.4122L83.0565 59.648Z" fill="#DE6967"/>
<path d="M81.7223 42.5882C81.7135 42.8819 81.6184 43.1665 81.4488 43.4065C81.2792 43.6464 81.0427 43.8311 80.7688 43.9375C80.4948 44.0439 80.1956 44.0672 79.9085 44.0045C79.6214 43.9418 79.3592 43.796 79.1545 43.5852C78.9498 43.3743 78.8117 43.1079 78.7576 42.8191C78.7034 42.5302 78.7355 42.2319 78.8499 41.9612C78.9643 41.6905 79.1559 41.4595 79.4008 41.2971C79.6456 41.1347 79.9329 41.048 80.2268 41.0479C80.629 41.0549 81.0121 41.2209 81.2923 41.5095C81.5725 41.7981 81.7271 42.1859 81.7223 42.5882Z" fill="#1C293D"/>
<path d="M83.8713 52.9312C83.8785 53.3097 83.7356 53.6757 83.4739 53.9492C83.2121 54.2227 82.8527 54.3815 82.4743 54.3909C82.0934 54.3838 81.7309 54.2264 81.4658 53.9529C81.2007 53.6794 81.0545 53.3121 81.0593 52.9312C81.0558 52.7442 81.0891 52.5583 81.1574 52.3842C81.2257 52.2101 81.3276 52.0512 81.4573 51.9164C81.587 51.7817 81.742 51.6739 81.9135 51.5991C82.0849 51.5243 82.2694 51.484 82.4564 51.4805C82.8356 51.4875 83.1968 51.6438 83.4617 51.9153C83.7265 52.1869 83.8737 52.5519 83.8713 52.9312Z" fill="#D84C49"/>
<path d="M79.8414 37.8862L76.7609 39.8295C76.5067 39.4066 76.4263 38.9017 76.5365 38.4208C76.6467 37.9399 76.939 37.5204 77.3519 37.2504C77.5562 37.1252 77.7835 37.0422 78.0204 37.0064C78.2573 36.9706 78.4989 36.9827 78.7311 37.042C78.9632 37.1013 79.1811 37.2066 79.3718 37.3516C79.5625 37.4966 79.7222 37.6784 79.8414 37.8862Z" fill="#1C293D"/>
<path d="M90.7134 35.9883L93.9552 37.439C93.8678 37.6518 93.7381 37.8447 93.574 38.0059C93.4099 38.1672 93.2148 38.2935 93.0005 38.3772C92.7862 38.4609 92.5572 38.5003 92.3272 38.4929C92.0973 38.4856 91.8712 38.4317 91.6627 38.3346C91.2395 38.1333 90.9071 37.7806 90.7313 37.3462C90.5556 36.9118 90.5492 36.4272 90.7134 35.9883Z" fill="#1C293D"/>
<path d="M92.4241 42.1401C92.4136 42.4223 92.3203 42.6952 92.156 42.925C91.9917 43.1547 91.7636 43.3312 91.4999 43.4324C91.2362 43.5336 90.9486 43.5551 90.6728 43.4942C90.397 43.4334 90.1451 43.2929 89.9484 43.0902C89.7518 42.8874 89.619 42.6314 89.5666 42.3539C89.5141 42.0763 89.5444 41.7895 89.6536 41.529C89.7627 41.2685 89.946 41.0458 90.1806 40.8886C90.4153 40.7314 90.6909 40.6465 90.9733 40.6445C91.3637 40.6516 91.7353 40.8129 92.0072 41.0931C92.279 41.3733 92.4289 41.7497 92.4241 42.1401Z" fill="#1C293D"/>
<path d="M85.0986 39.6152L85.6359 49.5734L90.3553 48.3197L85.0986 39.6152Z" fill="#DE6967"/>
<path d="M1.48354 80.6299C3.03279 81.4627 9.34623 85.9045 12.7761 86.2896C14.2268 86.4508 14.6209 86.218 14.5671 85.8418C14.4955 85.3224 13.5731 84.5433 13.3492 84.1224C12.9641 83.3881 10.6626 80.3433 11.5582 78.7493C12.4537 77.1553 13.2328 78.6777 15.3641 80.7642C17.4955 82.8508 19.6806 83.5762 21.5522 86.003C23.4238 88.4299 24.0507 92.2717 27.1492 95.0568L39.4895 103.484C39.4895 103.484 45.2388 76.806 47.7641 73.6627C50.4507 70.3583 61.9761 77.5583 59.5582 88.0627C57.1403 98.5672 51.6328 116.8 47.8 120.373C45.3283 122.693 40.1253 120.508 33.6328 114.731C28.5014 110.164 21.4716 103.313 18.4985 100.887C15.5253 98.4597 9.34623 97.1523 6.50742 95.5135C3.45369 93.7224 2.78204 92.6747 1.60891 90.3015C0.507418 88.0717 0.999955 84.4986 0.346224 83.1374C-0.307507 81.7762 -0.0925815 79.7971 1.48354 80.6299Z" fill="#F0BAB9"/>
<path d="M57.2924 66.6777C61.2506 69.1494 61.4477 72.7494 61.6447 76.8688C61.7007 81.6908 60.9377 86.4873 59.388 91.0539C57.7133 96.2389 55.0536 105.705 55.0536 105.705C55.0536 105.705 44.7193 105.946 39.3999 101.352C39.3999 101.352 41.8268 91.1434 43.5372 83.4419C45.2477 75.7404 47.3253 67.5464 57.2924 66.6777Z" fill="#AEA3F4"/>
<path d="M39.4443 103.502C42.2652 105.069 43.9219 108.436 44.4324 109.771C44.3103 108.217 43.8212 106.714 43.0055 105.386C42.1897 104.059 41.0705 102.943 39.7399 102.132L39.4443 103.502Z" fill="#DE6967"/>
<path d="M146.657 297.051L215.773 336.955V351.66L146.657 311.755V297.051Z" fill="#8878EE"/>
<path opacity="0.35" d="M146.657 297.051L215.773 336.955V351.66L146.657 311.755V297.051Z" fill="#09111F"/>
<path d="M284.89 297.051L215.773 336.955V351.66L284.89 311.755V297.051Z" fill="#8878EE"/>
<path opacity="0.2" d="M284.89 297.051L215.773 336.955V351.66L284.89 311.755V297.051Z" fill="#09111F"/>
<path d="M284.89 297.051L215.773 257.155L146.657 297.051L215.773 336.955L284.89 297.051Z" fill="#8878EE"/>
<path opacity="0.15" d="M284.89 297.051L215.773 257.155L146.657 297.051L215.773 336.955L284.89 297.051Z" fill="#09111F"/>
<path opacity="0.1" d="M215.773 336.955V332.755L153.928 297.051H146.657L215.773 336.955Z" fill="#09111F"/>
<path opacity="0.1" d="M215.773 257.155V261.355L277.618 297.051H284.89L215.773 257.155Z" fill="#09111F"/>
<path d="M284.89 297.051H277.618L215.773 332.755V336.955L284.89 297.051Z" fill="#8878EE"/>
<path d="M215.773 257.155V261.355L153.928 297.051H146.657L215.773 257.155Z" fill="#8878EE"/>
<path d="M216.024 279.731L245.72 296.872C247.94 298.161 247.94 300.239 245.72 301.519L223.573 314.343C222.326 314.981 220.944 315.313 219.543 315.313C218.142 315.313 216.761 314.981 215.514 314.343L185.818 297.203C183.597 295.913 183.597 293.836 185.818 292.555L207.973 279.731C209.22 279.095 210.599 278.764 211.999 278.764C213.398 278.764 214.777 279.095 216.024 279.731Z" fill="#344051"/>
<path d="M223.573 314.343L244.985 301.976L216.024 285.257C214.774 284.627 213.394 284.299 211.994 284.299C210.594 284.299 209.214 284.627 207.964 285.257L186.552 297.642L215.513 314.343C216.761 314.981 218.142 315.313 219.543 315.313C220.944 315.313 222.325 314.981 223.573 314.343Z" fill="#637083"/>
<path d="M198.086 297.077L211.08 289.582C211.322 289.461 211.589 289.397 211.859 289.397C212.13 289.397 212.397 289.461 212.638 289.582L214.233 290.477C214.662 290.719 214.662 291.122 214.233 291.373L201.238 298.869C200.998 298.99 200.733 299.053 200.464 299.053C200.195 299.053 199.929 298.99 199.689 298.869L198.095 297.973C198.002 297.941 197.921 297.882 197.864 297.802C197.806 297.722 197.774 297.627 197.773 297.528C197.772 297.43 197.802 297.334 197.858 297.253C197.914 297.172 197.994 297.111 198.086 297.077Z" fill="#1C293D"/>
<path d="M217.492 308.298L230.487 300.803C230.727 300.681 230.992 300.618 231.261 300.618C231.53 300.618 231.796 300.681 232.036 300.803L233.639 301.698C234.069 301.94 234.069 302.343 233.639 302.594L220.645 310.089C220.405 310.21 220.139 310.274 219.87 310.274C219.601 310.274 219.336 310.21 219.095 310.089L217.501 309.194C217.408 309.162 217.327 309.102 217.27 309.023C217.212 308.943 217.181 308.847 217.18 308.749C217.179 308.651 217.208 308.555 217.264 308.474C217.32 308.393 217.4 308.332 217.492 308.298Z" fill="#1C293D"/>
<path d="M185.746 326.093C185.673 324.734 185.279 323.411 184.598 322.233C183.916 321.055 182.965 320.054 181.824 319.314C181.429 319.025 180.963 318.848 180.477 318.801C179.99 318.754 179.499 318.838 179.056 319.045L177.364 320.03C176.965 320.311 176.649 320.693 176.448 321.137C176.246 321.581 176.167 322.071 176.218 322.555C176.292 323.915 176.685 325.237 177.365 326.416C178.044 327.595 178.992 328.598 180.131 329.343C180.528 329.632 180.994 329.809 181.482 329.856C181.971 329.903 182.462 329.819 182.907 329.612L184.591 328.6C184.987 328.321 185.302 327.942 185.505 327.501C185.707 327.061 185.791 326.575 185.746 326.093Z" fill="#8878EE"/>
<path opacity="0.1" d="M180.131 320.326C181.273 321.066 182.224 322.067 182.905 323.245C183.587 324.423 183.981 325.745 184.054 327.105C184.054 329.603 182.263 330.615 180.131 329.37C178.992 328.625 178.045 327.622 177.365 326.443C176.685 325.264 176.292 323.941 176.218 322.582C176.218 320.093 177.973 319.081 180.131 320.326Z" fill="#09111F"/>
<path d="M134.701 348.928C130.331 349.004 126.015 347.959 122.164 345.892L76.313 319.421C72.6324 317.289 70.5996 314.352 70.5996 311.146C70.5996 307.94 72.6324 305.012 76.313 302.88L129.435 272.209C135.256 268.85 140.182 260.334 140.182 253.609V85.4922C140.182 85.0172 140.37 84.5616 140.706 84.2258C141.042 83.8899 141.498 83.7012 141.973 83.7012C142.448 83.7012 142.903 83.8899 143.239 84.2258C143.575 84.5616 143.764 85.0172 143.764 85.4922V253.609C143.764 261.722 138.265 271.259 131.226 275.316L78.1041 305.988C75.5787 307.447 74.1817 309.274 74.1817 311.146C74.1817 313.018 75.5787 314.853 78.1041 316.313L123.955 342.785C129.874 346.206 139.51 346.206 145.447 342.785L179.253 323.28C179.457 323.151 179.685 323.064 179.924 323.024C180.162 322.985 180.406 322.995 180.64 323.052C180.875 323.11 181.095 323.214 181.289 323.359C181.482 323.504 181.644 323.686 181.765 323.895C181.886 324.105 181.963 324.336 181.992 324.576C182.021 324.816 182.002 325.059 181.934 325.291C181.867 325.523 181.753 325.739 181.601 325.926C181.448 326.113 181.258 326.267 181.044 326.379L147.238 345.892C143.388 347.961 139.071 349.006 134.701 348.928Z" fill="#344051"/>
<path d="M54.2477 21.2027C54.2212 21.0813 54.2202 20.9557 54.2449 20.8339C54.2696 20.7121 54.3193 20.5968 54.391 20.4953C54.4585 20.3891 54.5476 20.2983 54.6525 20.2289C54.7574 20.1595 54.8758 20.1129 54.9999 20.0923L59.3522 19.2505C59.475 19.2227 59.6022 19.2211 59.7257 19.2458C59.8491 19.2704 59.966 19.3209 60.0686 19.3938C60.2766 19.537 60.4211 19.7553 60.4716 20.0027L61.1432 23.4953C61.1685 23.6173 61.168 23.7433 61.1417 23.8651C61.1155 23.9869 61.0642 24.1019 60.991 24.2027C60.9254 24.3096 60.8381 24.4015 60.7347 24.4724C60.6314 24.5434 60.5143 24.5918 60.391 24.6147L56.0298 25.4475C55.9084 25.474 55.7828 25.475 55.661 25.4503C55.5392 25.4256 55.4239 25.3759 55.3223 25.3042C55.2161 25.2367 55.1254 25.1476 55.0559 25.0427C54.9865 24.9378 54.94 24.8194 54.9193 24.6953L54.2477 21.2027ZM50.6119 2.34304C50.5872 2.2201 50.5871 2.09348 50.6116 1.97049C50.6361 1.84751 50.6847 1.7306 50.7546 1.62652C50.8246 1.52244 50.9144 1.43324 51.0191 1.36409C51.1237 1.29494 51.2409 1.2472 51.3641 1.22364L55.7253 0.381846C55.8473 0.356605 55.9733 0.357108 56.0951 0.383322C56.2169 0.409536 56.3319 0.460884 56.4328 0.534083C56.5379 0.600604 56.6281 0.688317 56.6975 0.791623C56.7669 0.89493 56.814 1.01156 56.8358 1.13409L59.6925 16.0624C59.7177 16.1845 59.7172 16.3104 59.691 16.4322C59.6648 16.5541 59.6134 16.6691 59.5402 16.7699C59.4737 16.8751 59.386 16.9652 59.2827 17.0346C59.1794 17.104 59.0628 17.1511 58.9402 17.1729L54.579 18.0147C54.457 18.0399 54.3311 18.0394 54.2092 18.0132C54.0874 17.987 53.9724 17.9356 53.8716 17.8624C53.7664 17.7959 53.6763 17.7082 53.6069 17.6049C53.5375 17.5016 53.4904 17.385 53.4686 17.2624L50.6119 2.34304Z" fill="#8878EE"/>
<path d="M46.9761 35.8172C46.8923 35.7244 46.8278 35.616 46.786 35.4982C46.7443 35.3804 46.7262 35.2555 46.7329 35.1307C46.7395 35.0059 46.7708 34.8836 46.8248 34.7709C46.8788 34.6582 46.9546 34.5573 47.0477 34.4739L50.3522 31.5098C50.4444 31.4248 50.5535 31.3602 50.6723 31.3201C50.791 31.28 50.9169 31.2653 51.0417 31.2769C51.1659 31.2796 51.2881 31.308 51.4006 31.3604C51.5132 31.4129 51.6136 31.4881 51.6955 31.5814L54.0686 34.268C54.1524 34.3608 54.2169 34.4692 54.2587 34.587C54.3004 34.7048 54.3185 34.8297 54.3118 34.9545C54.3051 35.0793 54.2739 35.2016 54.2199 35.3143C54.1659 35.427 54.0901 35.5279 53.997 35.6112L50.7373 38.5396C50.645 38.6245 50.536 38.6891 50.4172 38.7292C50.2984 38.7693 50.1726 38.7841 50.0477 38.7724C49.9236 38.7698 49.8014 38.7413 49.6889 38.6889C49.5763 38.6365 49.4759 38.5613 49.394 38.468L46.9761 35.8172ZM34.1612 21.4889C33.9926 21.3 33.9057 21.0521 33.9194 20.7993C33.9232 20.6745 33.953 20.5519 34.007 20.4393C34.0609 20.3267 34.1379 20.2267 34.2328 20.1456L37.5373 17.1814C37.6288 17.0949 37.7374 17.0286 37.8563 16.987C37.9751 16.9453 38.1013 16.9292 38.2268 16.9396C38.3516 16.9434 38.4742 16.9732 38.5868 17.0272C38.6994 17.0812 38.7995 17.1581 38.8806 17.253L49.0179 28.5903C49.1028 28.6826 49.1674 28.7916 49.2075 28.9104C49.2476 29.0292 49.2623 29.1551 49.2507 29.2799C49.248 29.404 49.2196 29.5262 49.1672 29.6388C49.1148 29.7513 49.0395 29.8517 48.9462 29.9336L45.6328 32.8978C45.5416 32.9816 45.434 33.0455 45.3169 33.0856C45.1998 33.1256 45.0756 33.141 44.9522 33.1306C44.8266 33.1292 44.7026 33.1014 44.5885 33.0489C44.4743 32.9965 44.3724 32.9206 44.2895 32.8262L34.1612 21.4889Z" fill="#8878EE"/>
<g opacity="0.6">
<path d="M46.9761 35.8172C46.8923 35.7244 46.8278 35.616 46.786 35.4982C46.7443 35.3804 46.7262 35.2555 46.7329 35.1307C46.7395 35.0059 46.7708 34.8836 46.8248 34.7709C46.8788 34.6582 46.9546 34.5573 47.0477 34.4739L50.3522 31.5098C50.4444 31.4248 50.5535 31.3602 50.6723 31.3201C50.791 31.28 50.9169 31.2653 51.0417 31.2769C51.1659 31.2796 51.2881 31.308 51.4006 31.3604C51.5132 31.4129 51.6136 31.4881 51.6955 31.5814L54.0686 34.268C54.1524 34.3608 54.2169 34.4692 54.2587 34.587C54.3004 34.7048 54.3185 34.8297 54.3118 34.9545C54.3051 35.0793 54.2739 35.2016 54.2199 35.3143C54.1659 35.427 54.0901 35.5279 53.997 35.6112L50.7373 38.5396C50.645 38.6245 50.536 38.6891 50.4172 38.7292C50.2984 38.7693 50.1726 38.7841 50.0477 38.7724C49.9236 38.7698 49.8014 38.7413 49.6889 38.6889C49.5763 38.6365 49.4759 38.5613 49.394 38.468L46.9761 35.8172ZM34.1612 21.4889C33.9926 21.3 33.9057 21.0521 33.9194 20.7993C33.9232 20.6745 33.953 20.5519 34.007 20.4393C34.0609 20.3267 34.1379 20.2267 34.2328 20.1456L37.5373 17.1814C37.6288 17.0949 37.7374 17.0286 37.8563 16.987C37.9751 16.9453 38.1013 16.9292 38.2268 16.9396C38.3516 16.9434 38.4742 16.9732 38.5868 17.0272C38.6994 17.0812 38.7995 17.1581 38.8806 17.253L49.0179 28.5903C49.1028 28.6826 49.1674 28.7916 49.2075 28.9104C49.2476 29.0292 49.2623 29.1551 49.2507 29.2799C49.248 29.404 49.2196 29.5262 49.1672 29.6388C49.1148 29.7513 49.0395 29.8517 48.9462 29.9336L45.6328 32.8978C45.5416 32.9816 45.434 33.0455 45.3169 33.0856C45.1998 33.1256 45.0756 33.141 44.9522 33.1306C44.8266 33.1292 44.7026 33.1014 44.5885 33.0489C44.4743 32.9965 44.3724 32.9206 44.2895 32.8262L34.1612 21.4889Z" fill="white"/>
</g>
</svg>
