<svg width="229" height="288" viewBox="0 0 229 288" fill="none" xmlns="http://www.w3.org/2000/svg">
<path d="M189.037 252.46C189.037 252.46 191.527 215.583 190.828 201.989C190.246 191.243 188.787 186.765 188.482 184.338C188.482 184.338 185.84 159.263 185.625 137.869C185.518 127.589 184.569 120.281 178.936 108.066L142.73 116.726C141.996 122.153 139.506 158.243 138.915 190.329C138.405 218.422 139.202 243.013 139.202 243.013V244.49C139.202 246.138 138.843 247.284 137.787 249.917C136.466 253.309 134.569 256.448 132.181 259.195C131.437 260.001 126.27 264.514 125.59 265.463C123.369 268.051 127.972 269.511 131.384 269.045C134.966 268.562 140.572 267.192 142.13 265.007C143.187 263.538 143.984 258.425 145.067 256.947C148.73 251.95 150.234 249.783 150.261 248.207C150.315 245.323 149.321 244.186 148.963 242.556C149.258 239.153 156.611 211.168 156.736 201.254C156.799 196.535 156.476 190.034 156.476 190.034L162.172 157.329C164.375 165.496 168.243 185.771 169.551 193.553C171.136 203.063 175.282 227.475 177.736 242.037C178.676 247.651 179.115 250.49 179.527 253.096L179.625 254.207C179.706 255.622 180.736 270.756 181.291 273.908C182.455 280.526 188.339 279.693 189.279 274.338C190.085 269.789 189.082 255.675 189.055 253.947L189.037 252.46Z" fill="#F0BAB9"/>
<path d="M189.038 252.46C190.703 252.46 189.611 258.917 190.041 263.045C190.497 267.478 191.948 270.72 192.369 274.347C192.934 277.516 192.446 280.784 190.981 283.651C189.826 286.338 184.005 289.92 181.793 286.15C179.581 282.379 179.106 278.018 179.366 273.881C179.626 269.744 179.366 266.967 179.447 263.717C179.527 260.851 177.423 253.535 179.581 253.123L179.68 254.233C180.459 255.782 188.321 256.087 189.109 253.991L189.038 252.46Z" fill="#344051"/>
<path d="M150.638 251.726C151.148 253.794 150.638 259.472 150.638 259.472C150.638 259.472 149.742 261.433 146.545 262.732L145.112 254.833L150.638 251.726Z" fill="#1C293D"/>
<path d="M146.527 262.732L139.489 260.422L137.787 254.171L145.704 258.174L146.527 262.732Z" fill="#09111F"/>
<path d="M139.202 244.49V243.013C138.243 243.478 136.139 251.189 133.291 256.445C130.694 261.272 125.545 263.959 123.87 266.063C121.631 268.866 125.984 272.493 132.96 270.998C136.425 270.254 141.673 268.043 143.097 265.705C144.521 263.368 144.996 259.069 146.16 257.35C147.324 255.631 150.091 253.651 150.637 251.699C151.092 249.937 151.092 248.088 150.637 246.326C150.091 244.535 149.608 242.395 148.999 242.592V243.944C148.533 244.893 146.84 246.004 143.321 246.201C141.602 246.281 139.972 246.022 139.202 244.49Z" fill="#344051"/>
<path d="M141.996 116.26C141.996 116.26 139.605 142.831 138.835 166.356C138.065 189.881 138.754 220.239 138.754 220.239C138.754 220.239 141.181 221.977 146.527 222.219C151.874 222.46 153.691 220.678 153.691 220.678C153.691 220.678 156.96 210.013 157.471 202.508C157.795 198.446 157.795 194.364 157.471 190.302L162.244 158.905C162.244 158.905 168.297 189.819 168.987 193.553C169.677 197.287 175.471 230.323 175.471 230.323C175.471 230.323 177.745 232.419 183.584 232.311C188.751 232.213 190.247 230.359 190.247 230.359C190.247 230.359 191.491 210.102 191.205 201.451C190.963 193.822 189.217 187.75 188.868 182.798C188.518 177.845 188.321 149.663 187.972 138.917C187.623 128.171 186.727 118.947 177.53 106.016L141.996 116.26Z" fill="#637083"/>
<path d="M162.279 158.932L158.303 139.23C158.303 139.23 151.381 137.439 148.148 133.194C148.148 133.194 149.043 137.887 156.208 140.887L160.435 160.481L158.966 180.738L162.279 158.932Z" fill="#344051"/>
<path d="M91.4075 111.362C93.9578 111.751 96.5631 111.558 99.0284 110.798C97.9455 110.257 96.9321 109.586 96.0105 108.801C95.5877 108.461 95.3138 107.97 95.2469 107.432C95.18 106.893 95.3254 106.35 95.6522 105.917C95.9836 105.559 96.8075 106.392 98.6702 106.92C101.052 107.592 102.781 107.735 105.073 109.061C105.938 109.564 106.954 109.742 107.939 109.562C113.527 108.514 126.557 102.398 132.53 99.2099C133.748 94.2398 135.861 86.9323 138.467 77.8159C140.876 69.4159 144.736 65.7442 150.897 65.8786L150.01 84.1203C150.01 84.1203 147.073 96.7203 143.437 107.01C142.802 108.801 140.249 110.888 135.575 112.625C129.521 114.873 122.213 116.995 113.285 119.44C109.667 120.47 105.971 121.204 102.234 121.634C92.7955 122.44 89.1776 119.843 87.906 117.98C84.2881 112.84 86.4284 110.368 91.4075 111.362Z" fill="#F0BAB9"/>
<path d="M166.774 65.7442L175.389 66.4069C174.648 69.9081 174.858 73.5442 175.998 76.9367C177.138 80.3292 179.167 83.354 181.873 85.6964L178.031 101.171C178.157 103.087 181.327 109.535 184.398 116.467C178.622 124.204 150.288 126.846 141.046 120.049C142.47 112.759 143.536 107.225 143.822 104.458L143.357 94.4546C131.769 84.9531 145.748 70.4726 150.897 65.8696L157.363 65.583L166.774 65.7442Z" fill="#8878EE"/>
<path d="M203.052 142.839C202.427 142.351 201.932 141.717 201.61 140.992C201.288 140.268 201.15 139.475 201.208 138.684C201.36 137.242 201.691 135.433 202.291 134.735C202.891 134.036 206.652 128.923 208.318 131.896C210.109 135.138 209.742 136.454 209.742 136.454L203.052 142.839Z" fill="#DE6967"/>
<path d="M191.446 211.186C187.403 211.051 183.467 209.859 180.028 207.729L135.315 181.902C128.41 177.917 122.777 168.183 122.777 160.204V122.69C122.773 121.435 122.439 120.203 121.808 119.117C121.178 118.031 120.273 117.131 119.184 116.505C118.096 115.879 116.862 115.55 115.607 115.551C114.351 115.552 113.118 115.883 112.031 116.511L96.3774 125.574C96.1735 125.703 95.9456 125.79 95.7072 125.83C95.4689 125.869 95.225 125.859 94.9904 125.802C94.7558 125.744 94.5352 125.64 94.342 125.495C94.1487 125.35 93.9868 125.168 93.8659 124.959C93.745 124.749 93.6677 124.518 93.6386 124.278C93.6094 124.038 93.6291 123.795 93.6964 123.563C93.7637 123.331 93.8772 123.115 94.0302 122.928C94.1831 122.741 94.3723 122.587 94.5863 122.475L110.285 113.404C111.917 112.461 113.768 111.965 115.653 111.964C117.538 111.963 119.389 112.458 121.022 113.399C122.656 114.339 124.012 115.693 124.957 117.324C125.902 118.955 126.401 120.805 126.404 122.69V160.204C126.404 166.92 131.33 175.427 137.151 178.804L181.864 204.613C187.586 207.917 192.897 208.49 196.801 206.242C200.706 203.995 202.864 199.078 202.864 192.496V144.604C202.864 136.49 208.049 127.141 214.667 123.317L225.583 117.048C225.787 116.919 226.015 116.832 226.254 116.793C226.492 116.753 226.736 116.763 226.97 116.82C227.205 116.878 227.426 116.982 227.619 117.127C227.812 117.272 227.974 117.454 228.095 117.664C228.216 117.873 228.293 118.104 228.322 118.344C228.351 118.584 228.332 118.827 228.264 119.059C228.197 119.291 228.084 119.507 227.931 119.694C227.778 119.881 227.588 120.035 227.374 120.147L216.458 126.416C211.031 129.55 206.446 137.869 206.446 144.595V192.487C206.446 200.422 203.652 206.404 198.592 209.332C196.418 210.576 193.951 211.216 191.446 211.186Z" fill="#344051"/>
<path d="M114.19 128.162V131.091C114.19 135.774 110.903 141.479 106.838 143.816L79.7211 159.479L52.1479 143.556V119.682L78.8882 107.305C83.142 105.344 89.8763 105.649 93.942 107.986L106.82 115.428C110.876 117.774 114.19 123.479 114.19 128.162Z" fill="#344051"/>
<path d="M78.8884 107.305C83.1422 105.344 89.8765 105.649 93.9422 107.986L106.82 115.428C110.876 117.765 110.715 121.258 106.462 123.228L79.6944 135.586L52.1123 119.673L78.8884 107.305Z" fill="#637083"/>
<path opacity="0.15" d="M82.3 128.854C83.3683 129.551 84.2574 130.49 84.8953 131.595C85.5332 132.699 85.9019 133.939 85.9717 135.212V154.851L79.703 158.433L52.1299 142.511V118.681L59.1149 115.457L82.3 128.854Z" fill="#09111F"/>
<path d="M49.7748 115.571C50.188 115.379 50.645 115.301 51.0986 115.345C51.5521 115.389 51.9856 115.554 52.3539 115.822L79.4703 131.485C80.5403 132.182 81.4305 133.122 82.0685 134.229C82.7065 135.335 83.0743 136.576 83.142 137.852V161.207C83.1908 161.661 83.1169 162.12 82.9278 162.536C82.7388 162.952 82.4417 163.309 82.0674 163.571C81.4405 163.921 79.2285 165.201 78.6106 165.568C78.1959 165.76 77.7375 165.838 77.2826 165.794C76.8276 165.75 76.3927 165.586 76.0226 165.318L48.8972 149.655C47.8289 148.958 46.9398 148.019 46.3019 146.914C45.664 145.81 45.2953 144.57 45.2255 143.297V119.941C45.1779 119.487 45.2514 119.028 45.4386 118.611C45.6257 118.194 45.9199 117.835 46.2912 117.568L49.7748 115.571Z" fill="#344051"/>
<path d="M76.0226 133.472L48.8972 117.818C46.8734 116.645 45.2256 117.594 45.2256 119.941V143.296C45.2953 144.57 45.6641 145.809 46.302 146.914C46.9399 148.018 47.829 148.957 48.8972 149.654L76.0226 165.317C78.0465 166.49 79.6943 165.541 79.6943 163.194V139.839C79.6245 138.564 79.2558 137.324 78.618 136.218C77.9801 135.112 77.0911 134.171 76.0226 133.472Z" fill="#637083"/>
<path d="M43.9004 160.66V164.699C43.9004 166.338 44.4646 167.475 45.3959 168.013L47.8317 169.419C48.4155 169.703 49.0655 169.823 49.7122 169.766C50.3589 169.709 50.978 169.478 51.5034 169.096L73.8914 156.147V140.207L71.4556 138.801L49.0228 151.75C47.5289 152.728 46.2867 154.045 45.3967 155.593C44.5067 157.141 43.9941 158.877 43.9004 160.66ZM54.0466 155.663C54.1322 155.955 54.1803 156.256 54.1899 156.559C54.126 157.756 53.7805 158.92 53.1814 159.958C52.5822 160.996 51.7465 161.878 50.7422 162.532C50.4632 162.696 50.1613 162.816 49.8466 162.89C49.7682 162.598 49.7261 162.297 49.7213 161.995C49.7859 160.798 50.1317 159.634 50.7308 158.596C51.3299 157.558 52.1652 156.676 53.169 156.022C53.4473 155.87 53.7417 155.75 54.0466 155.663Z" fill="#8878EE"/>
<path opacity="0.2" d="M47.706 169.329C47.7529 169.37 47.8039 169.406 47.8583 169.437L47.7687 169.383L45.4135 168.013C44.4732 167.493 43.918 166.356 43.918 164.708V160.669C43.9767 158.875 44.498 157.126 45.4314 155.592L47.8672 156.998C46.9429 158.535 46.4251 160.283 46.3628 162.075V166.114C46.2971 167.16 46.6335 168.192 47.303 168.998C47.4237 169.124 47.559 169.235 47.706 169.329Z" fill="#09111F"/>
<path opacity="0.5" d="M73.8913 140.207L51.5033 153.156C49.9844 154.103 48.7328 155.422 47.8675 156.989L45.4316 155.583C46.2964 154.019 47.5444 152.7 49.0585 151.75L71.4913 138.801L73.8913 140.207Z" fill="white"/>
<path opacity="0.2" d="M54.1903 156.559C54.1892 156.236 54.147 155.914 54.0649 155.601C55.5425 155.198 56.6261 156.121 56.6261 157.965C56.5618 159.161 56.217 160.325 55.6196 161.362C55.0222 162.4 54.189 163.283 53.1873 163.939C51.5933 164.834 50.2321 164.377 49.856 162.891C50.1722 162.822 50.4748 162.701 50.7515 162.533C51.7527 161.876 52.5855 160.993 53.1828 159.956C53.7802 158.918 54.1253 157.755 54.1903 156.559Z" fill="#09111F"/>
<path d="M23.2227 148.714V152.762C23.2227 154.392 23.7868 155.538 24.7182 156.066L27.154 157.481C27.7371 157.759 28.3845 157.874 29.0278 157.815C29.671 157.755 30.286 157.522 30.8077 157.141L53.1958 144.183V128.269L50.76 126.854L28.3719 139.804C26.8746 140.781 25.6282 142.096 24.7337 143.644C23.8391 145.192 23.3215 146.929 23.2227 148.714ZM33.3689 143.69C33.4505 144.003 33.4926 144.325 33.4943 144.649C33.4297 145.845 33.0838 147.01 32.4848 148.047C31.8857 149.085 31.0504 149.967 30.0465 150.622C29.7631 150.776 29.4625 150.896 29.151 150.98C29.0656 150.674 29.0234 150.357 29.0256 150.04C29.0899 148.844 29.4347 147.68 30.0321 146.643C30.6295 145.605 31.4628 144.722 32.4645 144.066C32.7468 143.899 33.0513 143.773 33.3689 143.69Z" fill="#8878EE"/>
<path opacity="0.2" d="M27.2615 157.544H27.2167H27.154L24.7182 156.12C23.7779 155.592 23.2227 154.454 23.2227 152.807V148.768C23.2322 147.905 23.368 147.048 23.6256 146.225C23.8952 145.344 24.2648 144.496 24.7271 143.699L27.163 145.096C26.9321 145.495 26.7258 145.908 26.5451 146.332C25.9891 147.536 25.6844 148.84 25.6495 150.165V154.204C25.5732 155.243 25.8931 156.274 26.5451 157.087C26.7561 157.279 26.9984 157.434 27.2615 157.544Z" fill="#09111F"/>
<path opacity="0.5" d="M53.2229 128.269L30.8348 141.219C29.3139 142.163 28.0617 143.483 27.199 145.052L24.7632 143.654C25.6127 142.089 26.845 140.764 28.3453 139.804L50.7333 126.854L53.2229 128.269Z" fill="white"/>
<path opacity="0.2" d="M33.4855 144.639C33.4872 144.319 33.4481 144 33.3691 143.69C34.8378 143.278 35.9303 144.21 35.9303 146.054C35.866 147.25 35.5212 148.414 34.9238 149.451C34.3264 150.489 33.4932 151.371 32.4915 152.027C30.8885 152.923 29.5363 152.466 29.1602 150.971C29.4772 150.904 29.7802 150.783 30.0557 150.612C31.0567 149.957 31.8889 149.074 32.4849 148.036C33.0808 146.998 33.4236 145.835 33.4855 144.639Z" fill="#09111F"/>
<path d="M30.0101 133.768C29.7117 133.769 29.4216 133.67 29.1862 133.486C28.9508 133.303 28.7837 133.046 28.7116 132.756L25.1295 118.715C25.0404 118.369 25.0923 118.002 25.2737 117.695C25.4551 117.388 25.7511 117.165 26.0967 117.076C26.4422 116.987 26.809 117.039 27.1164 117.22C27.4237 117.401 27.6464 117.697 27.7355 118.043L31.3176 132.094C31.3631 132.264 31.3741 132.442 31.35 132.617C31.3258 132.792 31.267 132.96 31.1769 133.112C31.0868 133.264 30.9673 133.396 30.8253 133.501C30.6834 133.606 30.5219 133.682 30.3504 133.724C30.2392 133.752 30.1249 133.767 30.0101 133.768Z" fill="#11192B" fill-opacity="0.1"/>
<path d="M19.9272 139.625C19.6253 139.626 19.3319 139.525 19.0944 139.338L5.76006 128.798C5.6129 128.692 5.48877 128.557 5.39517 128.401C5.30157 128.246 5.24043 128.073 5.21544 127.894C5.19045 127.714 5.20212 127.531 5.24977 127.356C5.29741 127.181 5.38003 127.017 5.49264 126.875C5.60525 126.733 5.74551 126.615 5.90497 126.528C6.06443 126.441 6.23977 126.388 6.42042 126.371C6.60108 126.354 6.78329 126.374 6.95608 126.429C7.12886 126.485 7.28862 126.575 7.42573 126.693L20.7601 137.225C21.0388 137.447 21.2187 137.77 21.2606 138.124C21.3025 138.477 21.2031 138.833 20.9839 139.114C20.8588 139.275 20.6984 139.404 20.5152 139.493C20.3319 139.581 20.1307 139.627 19.9272 139.625Z" fill="#11192B" fill-opacity="0.1"/>
<path d="M1.55067 152.484C1.19441 152.497 0.847557 152.368 0.586406 152.125C0.325254 151.883 0.171193 151.546 0.15813 151.19C0.145067 150.834 0.274066 150.487 0.516744 150.226C0.759421 149.965 1.09591 149.811 1.45217 149.798L17.0432 148.589C17.2193 148.574 17.3965 148.594 17.5645 148.649C17.7326 148.703 17.8882 148.79 18.0223 148.905C18.1565 149.02 18.2664 149.161 18.3459 149.318C18.4253 149.476 18.4726 149.648 18.485 149.824C18.5098 150.179 18.394 150.529 18.1628 150.799C17.9315 151.069 17.6033 151.236 17.2492 151.266L1.65813 152.475L1.55067 152.484Z" fill="#11192B" fill-opacity="0.1"/>
<path d="M215.24 128.225C214.936 124.916 214.446 121.627 213.772 118.374C211.734 110.741 209.019 103.306 205.658 96.1562C204.163 93.2994 200.787 89.1353 198.395 85.6158C195.01 80.6457 192.628 77.8606 190.058 74.4845C184.398 67.0785 181.998 66.6487 175.389 66.4248C174.494 68.78 172.452 78.4338 179.07 86.2338L193.255 101.189C194.061 102.487 202.73 117.308 204.172 122.78C204.421 123.753 204.3 124.784 203.831 125.673C202.698 128.181 201.866 130.814 201.351 133.517C200.93 135.416 199.801 136.92 200.187 137.216C200.662 137.534 201.231 137.682 201.802 137.636C202.372 137.591 202.91 137.354 203.33 136.965C204.342 135.878 205.169 134.632 205.775 133.276C206.041 133.258 206.308 133.296 206.558 133.387C206.809 133.479 207.038 133.621 207.231 133.805C207.424 133.99 207.576 134.212 207.679 134.459C207.781 134.705 207.831 134.97 207.825 135.237C207.906 136.338 207.404 137.87 207.019 139.777C206.948 140.153 206.858 140.583 206.688 141.622C206.541 142.323 206.457 143.037 206.437 143.753C208.228 144.085 210.1 142.992 213.109 140.171C215.822 137.538 216.001 134.082 215.24 128.225Z" fill="#F0BAB9"/>
<path d="M168.315 61.3916C168.368 59.6006 174.189 55.4095 177.136 50.9498C179.822 46.8125 183.682 35.4394 174.637 31.8036C174.637 31.8036 176.589 26.3498 173.043 23.1349C169.497 19.92 164.724 21.908 163.971 23.2513C163.517 21.5767 162.534 20.0935 161.169 19.0221C159.804 17.9508 158.13 17.3486 156.395 17.3051C154.701 17.1775 153.017 17.6663 151.655 18.6816C150.292 19.6969 149.343 21.1703 148.98 22.8304C147.549 22.2109 145.949 22.1024 144.447 22.5231C142.945 22.9437 141.634 23.868 140.733 25.1409C137.41 29.717 141.816 33.908 141.816 33.908C141.245 34.2937 140.789 34.8273 140.497 35.4519C140.205 36.0765 140.089 36.7686 140.16 37.4543C140.419 39.3886 142.273 39.8633 142.488 40.8304C142.529 41.0328 142.504 41.2432 142.415 41.4297C142.326 41.6162 142.179 41.7686 141.996 41.8639C141.812 41.9591 141.603 41.9919 141.399 41.9573C141.195 41.9227 141.009 41.8226 140.867 41.6722C140.915 41.9247 141.013 42.1652 141.154 42.3799C141.296 42.5946 141.478 42.7792 141.691 42.9231C141.904 43.0671 142.144 43.1675 142.396 43.2187C142.648 43.2699 142.907 43.2709 143.16 43.2215C145.246 43.1051 147.109 40.2663 147.109 40.2663L168.315 61.3916Z" fill="#1C293D"/>
<path d="M149.33 31.2305C146.643 32.3946 144.109 36.4872 144.145 47.932C144.145 57.6305 147.154 60.0842 148.623 60.8096C150.091 61.5349 153.055 61.1588 155.912 60.72V66.2991C155.912 66.2991 150.745 72.7111 155.375 75.8991C167.303 73.8126 168.217 65.9857 168.217 65.9857L168.431 53.8245C168.431 53.8245 170.07 55.5439 172.909 53.0185C175.291 50.932 176.151 47.3588 174.36 45.3887C172.569 43.4185 170.276 43.2663 168.199 45.4603C168.199 45.4603 164.393 45.7111 158.67 42.12C152.948 38.529 150.906 34.8842 149.33 31.2305Z" fill="#F0BAB9"/>
<path d="M156.198 54.0037C156.21 54.1887 156.185 54.3742 156.125 54.5495C156.065 54.7247 155.97 54.8863 155.847 55.0246C155.724 55.163 155.574 55.2754 155.407 55.3554C155.239 55.4353 155.058 55.4812 154.873 55.4903C154.586 55.5134 154.298 55.4499 154.048 55.3082C153.797 55.1665 153.594 54.9529 153.466 54.6951C153.338 54.4372 153.29 54.1469 153.328 53.8614C153.367 53.576 153.489 53.3086 153.681 53.0936C153.873 52.8787 154.124 52.726 154.403 52.6554C154.683 52.5847 154.977 52.5993 155.247 52.6972C155.518 52.7951 155.754 52.9719 155.923 53.2048C156.092 53.4376 156.188 53.7159 156.198 54.0037Z" fill="#D84C49"/>
<path d="M148.829 44.6191C148.827 44.8714 148.751 45.1176 148.61 45.3272C148.47 45.5368 148.271 45.7005 148.038 45.7981C147.805 45.8958 147.549 45.923 147.301 45.8764C147.053 45.8299 146.824 45.7116 146.643 45.5362C146.461 45.3608 146.335 45.1361 146.28 44.8898C146.226 44.6435 146.244 44.3865 146.334 44.1507C146.423 43.9148 146.58 43.7105 146.785 43.5629C146.99 43.4154 147.233 43.3311 147.485 43.3206C147.659 43.317 147.832 43.3479 147.993 43.4113C148.155 43.4747 148.302 43.5695 148.427 43.6902C148.552 43.8109 148.652 43.9551 148.721 44.1146C148.79 44.274 148.826 44.4454 148.829 44.6191Z" fill="#1C293D"/>
<path d="M158.742 45.2101C158.754 45.395 158.729 45.5805 158.669 45.7558C158.609 45.9311 158.514 46.0926 158.391 46.231C158.267 46.3693 158.118 46.4818 157.95 46.5617C157.783 46.6416 157.602 46.6875 157.416 46.6966C157.042 46.699 156.681 46.5538 156.413 46.2923C156.145 46.0308 155.991 45.6741 155.984 45.2996C155.978 45.1185 156.008 44.938 156.071 44.7684C156.135 44.5989 156.232 44.4435 156.356 44.3113C156.48 44.1791 156.629 44.0726 156.794 43.9978C156.959 43.9231 157.137 43.8816 157.318 43.8757C157.499 43.8698 157.68 43.8997 157.849 43.9636C158.019 44.0274 158.174 44.1241 158.306 44.248C158.438 44.3719 158.545 44.5206 158.62 44.6857C158.694 44.8508 158.736 45.029 158.742 45.2101Z" fill="#1C293D"/>
<path d="M147.933 39.4873L145.201 41.0903C145.299 41.275 145.433 41.4376 145.596 41.568C145.759 41.6985 145.948 41.794 146.149 41.8486C146.351 41.9032 146.562 41.9157 146.768 41.8854C146.975 41.8551 147.173 41.7826 147.35 41.6724C147.71 41.4527 147.97 41.1032 148.079 40.6963C148.187 40.2895 148.135 39.8566 147.933 39.4873Z" fill="#1C293D"/>
<path d="M168.252 43.8838V49.2569C167.908 49.2657 167.565 49.2039 167.245 49.0752C166.926 48.9465 166.636 48.7538 166.393 48.5088C166.151 48.2639 165.961 47.9719 165.836 47.6508C165.71 47.3298 165.652 46.9864 165.664 46.642C165.667 45.9403 165.936 45.2657 166.416 44.754C166.896 44.2422 167.552 43.9313 168.252 43.8838Z" fill="#1C293D"/>
<path d="M152.357 43.3379L151.811 51.0752L147.727 50.117L152.357 43.3379Z" fill="#DE6967"/>
<path d="M155.947 110.738C158.947 110.388 165.144 108.669 166.156 106.144C165.755 107.409 164.981 108.523 163.935 109.341C162.064 110.953 155.938 112.618 155.938 112.618L155.947 110.738Z" fill="#DE6967"/>
<path d="M192.01 0.899234C193.153 1.33541 194.224 1.93903 195.189 2.69028C196.124 3.37361 196.928 4.22 197.563 5.18879C198.166 6.12072 198.563 7.17116 198.727 8.26938C198.888 9.44157 198.743 10.6356 198.306 11.7351C197.993 12.6153 197.509 13.4249 196.882 14.1171C196.321 14.7073 195.679 15.214 194.974 15.6216C194.289 16.0133 193.57 16.343 192.825 16.6067L190.712 17.3679C190.09 17.5925 189.49 17.8743 188.921 18.2097C188.384 18.4797 187.934 18.8956 187.622 19.4097C187.479 19.6497 187.275 19.8475 187.031 19.9828C186.914 20.0472 186.784 20.0846 186.651 20.0924C186.518 20.1001 186.385 20.078 186.261 20.0276L183.467 18.9798C183.334 18.9307 183.213 18.8555 183.11 18.7586C183.007 18.6617 182.924 18.5451 182.867 18.4156C182.805 18.2918 182.773 18.1554 182.773 18.0171C182.773 17.8789 182.805 17.7425 182.867 17.6186C183.226 16.757 183.756 15.9771 184.425 15.3261C185.032 14.7556 185.709 14.2651 186.44 13.8664C187.146 13.4874 187.883 13.1698 188.643 12.9171C189.395 12.6664 190.094 12.4246 190.748 12.1739C191.338 11.9571 191.905 11.6811 192.44 11.35C192.9 11.0584 193.252 10.6244 193.443 10.1142C193.62 9.6672 193.684 9.18383 193.631 8.7062C193.578 8.22856 193.409 7.77115 193.139 7.37386C192.465 6.39532 191.485 5.66783 190.354 5.3052C189.368 4.91305 188.285 4.83596 187.254 5.08453C186.223 5.3331 185.294 5.89513 184.595 6.69326C184.417 6.88199 184.208 7.0394 183.977 7.15893C183.729 7.23678 183.46 7.21758 183.225 7.1052L180.252 5.9858C180.146 5.94901 180.049 5.89118 179.965 5.81577C179.882 5.74036 179.815 5.64894 179.769 5.54699C179.717 5.4425 179.69 5.32761 179.69 5.21117C179.69 5.09473 179.717 4.97985 179.769 4.87535C180.162 3.96224 180.778 3.16192 181.56 2.547C182.43 1.82334 183.421 1.25942 184.488 0.881323C185.66 0.467304 186.89 0.243575 188.133 0.218635C189.457 0.193587 190.774 0.424692 192.01 0.899234ZM185.634 22.3022C185.765 22.3486 185.884 22.422 185.984 22.5177C186.085 22.6134 186.164 22.7291 186.216 22.8574C186.271 22.9846 186.3 23.1218 186.3 23.2604C186.3 23.3991 186.271 23.5362 186.216 23.6634L184.998 26.8962C184.952 27.0269 184.879 27.1462 184.783 27.2466C184.687 27.3469 184.571 27.4258 184.443 27.4783C184.316 27.5335 184.179 27.562 184.04 27.562C183.901 27.562 183.764 27.5335 183.637 27.4783L180.476 26.2873C180.345 26.2409 180.226 26.1675 180.126 26.0718C180.025 25.9761 179.946 25.8604 179.894 25.7321C179.839 25.6049 179.81 25.4677 179.81 25.3291C179.81 25.1904 179.839 25.0533 179.894 24.9261L181.112 21.6933C181.16 21.5623 181.233 21.4424 181.329 21.3408C181.424 21.2392 181.539 21.158 181.667 21.1022C181.795 21.049 181.932 21.0216 182.07 21.0216C182.208 21.0216 182.345 21.049 182.473 21.1022L185.634 22.3022Z" fill="#8878EE"/>
<path d="M193.559 39.4966C193.652 39.5883 193.727 39.6976 193.777 39.8184C193.828 39.9391 193.854 40.0686 193.854 40.1995C193.854 40.3304 193.828 40.46 193.777 40.5807C193.727 40.7014 193.652 40.8108 193.559 40.9025L191.32 43.2667C191.23 43.3621 191.122 43.4383 191.002 43.4906C190.882 43.543 190.753 43.5704 190.622 43.5712C190.49 43.576 190.36 43.5547 190.237 43.5085C190.114 43.4624 190.001 43.3924 189.905 43.3025L187.622 41.1085C187.526 41.0188 187.45 40.9106 187.398 40.7905C187.345 40.6704 187.318 40.541 187.317 40.41C187.31 40.2785 187.331 40.1471 187.377 40.0238C187.423 39.9005 187.494 39.7881 187.586 39.6936L189.834 37.3384C190.021 37.154 190.274 37.0508 190.537 37.0508C190.8 37.0508 191.052 37.154 191.24 37.3384L193.559 39.4966ZM206.992 23.2607C207.825 24.0497 208.539 24.9545 209.114 25.9473C209.668 26.888 210.053 27.9185 210.252 28.9921C210.419 30.0211 210.367 31.0741 210.099 32.0816C209.814 33.035 209.332 33.9183 208.686 34.6754C208.04 35.4324 207.244 36.0466 206.347 36.4787C205.646 36.788 204.904 36.9931 204.144 37.0876C203.404 37.1709 202.658 37.1918 201.914 37.1503L199.801 37.0339C199.17 36.9998 198.538 37.0208 197.911 37.0966C197.35 37.1585 196.816 37.3756 196.371 37.7234C196.16 37.8827 195.909 37.9789 195.646 38.001C195.52 38.0151 195.393 38.0007 195.273 37.9589C195.154 37.917 195.045 37.8488 194.956 37.7592L192.923 35.8249C192.727 35.6403 192.612 35.3863 192.601 35.1175C192.588 34.9852 192.607 34.8517 192.657 34.7285C192.707 34.6053 192.786 34.4961 192.887 34.41C193.511 33.7896 194.255 33.3022 195.072 32.9772C195.808 32.704 196.575 32.5264 197.356 32.4488C198.11 32.3862 198.868 32.3862 199.622 32.4488C200.368 32.5145 201.066 32.5592 201.717 32.5831C202.316 32.6133 202.916 32.5803 203.508 32.4846C204.018 32.4054 204.487 32.1598 204.843 31.7861C205.157 31.4611 205.387 31.0649 205.515 30.6315C205.643 30.198 205.664 29.74 205.577 29.2966C205.354 28.198 204.771 27.2052 203.92 26.4757C203.205 25.7761 202.291 25.3146 201.304 25.1543C200.316 24.994 199.303 25.1427 198.404 25.5801C198.183 25.6774 197.946 25.735 197.705 25.7503C197.583 25.743 197.463 25.7105 197.354 25.6551C197.245 25.5996 197.148 25.5223 197.069 25.4279L194.902 23.3592C194.746 23.2181 194.65 23.0227 194.634 22.813C194.628 22.7022 194.646 22.5915 194.686 22.4881C194.726 22.3847 194.788 22.291 194.866 22.213C195.544 21.5688 196.367 21.0986 197.266 20.8428C198.288 20.5374 199.355 20.4132 200.419 20.4757C201.59 20.547 202.742 20.8071 203.831 21.2458C204.995 21.7048 206.057 22.3896 206.956 23.2607H206.992Z" fill="#8878EE"/>
<g opacity="0.6">
<path d="M193.559 39.4966C193.652 39.5883 193.727 39.6976 193.777 39.8184C193.828 39.9391 193.854 40.0686 193.854 40.1995C193.854 40.3304 193.828 40.46 193.777 40.5807C193.727 40.7014 193.652 40.8108 193.559 40.9025L191.32 43.2667C191.23 43.3621 191.122 43.4383 191.002 43.4906C190.882 43.543 190.753 43.5704 190.622 43.5712C190.49 43.576 190.36 43.5547 190.237 43.5085C190.114 43.4624 190.001 43.3924 189.905 43.3025L187.622 41.1085C187.526 41.0188 187.45 40.9106 187.398 40.7905C187.345 40.6704 187.318 40.541 187.317 40.41C187.31 40.2785 187.331 40.1471 187.377 40.0238C187.423 39.9005 187.494 39.7881 187.586 39.6936L189.834 37.3384C190.021 37.154 190.274 37.0508 190.537 37.0508C190.8 37.0508 191.052 37.154 191.24 37.3384L193.559 39.4966ZM206.992 23.2607C207.825 24.0497 208.539 24.9545 209.114 25.9473C209.668 26.888 210.053 27.9185 210.252 28.9921C210.419 30.0211 210.367 31.0741 210.099 32.0816C209.814 33.035 209.332 33.9183 208.686 34.6754C208.04 35.4324 207.244 36.0466 206.347 36.4787C205.646 36.788 204.904 36.9931 204.144 37.0876C203.404 37.1709 202.658 37.1918 201.914 37.1503L199.801 37.0339C199.17 36.9998 198.538 37.0208 197.911 37.0966C197.35 37.1585 196.816 37.3756 196.371 37.7234C196.16 37.8827 195.909 37.9789 195.646 38.001C195.52 38.0151 195.393 38.0007 195.273 37.9589C195.154 37.917 195.045 37.8488 194.956 37.7592L192.923 35.8249C192.727 35.6403 192.612 35.3863 192.601 35.1175C192.588 34.9852 192.607 34.8517 192.657 34.7285C192.707 34.6053 192.786 34.4961 192.887 34.41C193.511 33.7896 194.255 33.3022 195.072 32.9772C195.808 32.704 196.575 32.5264 197.356 32.4488C198.11 32.3862 198.868 32.3862 199.622 32.4488C200.368 32.5145 201.066 32.5592 201.717 32.5831C202.316 32.6133 202.916 32.5803 203.508 32.4846C204.018 32.4054 204.487 32.1598 204.843 31.7861C205.157 31.4611 205.387 31.0649 205.515 30.6315C205.643 30.198 205.664 29.74 205.577 29.2966C205.354 28.198 204.771 27.2052 203.92 26.4757C203.205 25.7761 202.291 25.3146 201.304 25.1543C200.316 24.994 199.303 25.1427 198.404 25.5801C198.183 25.6774 197.946 25.735 197.705 25.7503C197.583 25.743 197.463 25.7105 197.354 25.6551C197.245 25.5996 197.148 25.5223 197.069 25.4279L194.902 23.3592C194.746 23.2181 194.65 23.0227 194.634 22.813C194.628 22.7022 194.646 22.5915 194.686 22.4881C194.726 22.3847 194.788 22.291 194.866 22.213C195.544 21.5688 196.367 21.0986 197.266 20.8428C198.288 20.5374 199.355 20.4132 200.419 20.4757C201.59 20.547 202.742 20.8071 203.831 21.2458C204.995 21.7048 206.057 22.3896 206.956 23.2607H206.992Z" fill="white"/>
</g>
</svg>
