<svg width="246" height="218" viewBox="0 0 246 218" fill="none" xmlns="http://www.w3.org/2000/svg">
<path d="M107.295 196.709H48.0894V196.867H107.295V196.709Z" fill="#E4E7EC"/>
<path d="M103.061 127.67H23.1631V133.307H103.061V127.67Z" fill="#E4E7EC"/>
<path d="M103.06 127.67H68.3193V133.307H103.06V127.67Z" fill="#F2F4F7"/>
<path d="M34.9688 133.307H23.1631V188.677H34.9688V133.307Z" fill="#E4E7EC"/>
<path d="M34.9688 139.02L23.1631 135.001V133.307H34.9688V139.02Z" fill="#F2F4F7"/>
<path d="M103.061 133.307H91.2549V188.677H103.061V133.307Z" fill="#F2F4F7"/>
<path d="M80.1251 133.307H68.3193V188.677H80.1251V133.307Z" fill="#E4E7EC"/>
<path d="M80.1188 139.02L68.3193 135.001V133.307H80.1188V139.02Z" fill="#F2F4F7"/>
<path d="M57.9039 133.307H46.0981V188.677H57.9039V133.307Z" fill="#F2F4F7"/>
<path d="M110.569 2.09131H9.87207V87.8348H110.569V2.09131Z" fill="#E4E7EC"/>
<path d="M110.568 87.8286H111.693L111.693 2.08517H110.568L110.568 87.8286Z" fill="#F2F4F7"/>
<path d="M106.783 84.0364V5.87695L13.6706 5.87695V84.0364H106.783Z" fill="#F2F4F7"/>
<path d="M59.0986 72.1739C64.7866 53.2139 66.3666 25.2479 78.4631 29.1031C90.5596 32.9583 74.7154 74.3101 74.7154 74.3101L59.0986 72.1739Z" fill="white"/>
<path d="M68.8691 73.1153C63.08 45.6359 64.5399 9.15686 46.5532 9.9911C28.5665 10.8253 46.5532 74.3098 46.5532 74.3098L68.8691 73.1153Z" fill="white"/>
<path d="M81.5787 70.0314H42.1987C41.3952 70.0055 40.6136 70.2965 40.0225 70.8415C39.4314 71.3864 39.0781 72.1419 39.0387 72.9449C38.2361 91.0833 41.2065 109.601 46.7365 127.67H76.8892C82.4192 109.569 85.3896 91.0833 84.587 72.9449C84.5561 72.1657 84.2264 71.4283 83.6662 70.8857C83.106 70.3432 82.3585 70.0373 81.5787 70.0314Z" fill="#E4E7EC"/>
<path d="M171.158 11.6533H168.94V188.676H171.158V11.6533Z" fill="#F2F4F7"/>
<path d="M223.292 11.6533H221.074V188.676H223.292V11.6533Z" fill="#F2F4F7"/>
<path d="M155.428 11.6533H153.209V188.676H155.428V11.6533Z" fill="#E4E7EC"/>
<path d="M207.562 11.6533H205.343V188.676H207.562V11.6533Z" fill="#E4E7EC"/>
<path d="M223.292 10.4399H153.209V12.8605H223.292V10.4399Z" fill="#E4E7EC"/>
<path d="M223.292 53.7891H153.209V56.2096H223.292V53.7891Z" fill="#E4E7EC"/>
<path d="M223.292 97.1377H153.209V99.5583H223.292V97.1377Z" fill="#E4E7EC"/>
<path d="M223.292 140.487H153.209V142.907H223.292V140.487Z" fill="#E4E7EC"/>
<path d="M223.292 183.835H153.209V186.256H223.292V183.835Z" fill="#E4E7EC"/>
<path d="M223.292 10.4399H207.562V12.8605H223.292V10.4399Z" fill="#F2F4F7"/>
<path d="M223.292 53.7891H207.562V56.2096H223.292V53.7891Z" fill="#F2F4F7"/>
<path d="M223.292 97.1377H207.562V99.5583H223.292V97.1377Z" fill="#F2F4F7"/>
<path d="M223.292 140.487H207.562V142.907H223.292V140.487Z" fill="#F2F4F7"/>
<path d="M223.292 183.835H207.562V186.256H223.292V183.835Z" fill="#F2F4F7"/>
<path d="M167.215 115.144H161.995V140.487H167.215V115.144Z" fill="#F0F0F0"/>
<path d="M167.215 124.175H161.995V131.455H167.215V124.175Z" fill="#F2F4F7"/>
<path d="M167.215 140.493H184.974V115.15H167.215V140.493Z" fill="#E6E6E6"/>
<path d="M175.279 111.87H169.382V140.487H175.279V111.87Z" fill="#E4E7EC"/>
<path d="M175.279 120.964H169.382V125.369H175.279V120.964Z" fill="#F2F4F7"/>
<path d="M175.279 128.321H169.382V132.726H175.279V128.321Z" fill="#F2F4F7"/>
<path d="M175.285 140.487H195.339V111.87H175.285V140.487Z" fill="#F2F4F7"/>
<path d="M181.845 115.144H178.667V140.487H181.845V115.144Z" fill="#F0F0F0"/>
<path d="M181.296 118.354H179.21V137.276H181.296V118.354Z" fill="#F2F4F7"/>
<path d="M181.839 140.493H192.64V115.15H181.839V140.493Z" fill="#CED2DA"/>
<path d="M191 115H186V140H191V115Z" fill="#E4E7EC"/>
<path d="M190.333 122.285H186.744V126.393H190.333V122.285Z" fill="#F7F9FB"/>
<path d="M190.333 129.148H186.744V133.256H190.333V129.148Z" fill="#F7F9FB"/>
<path d="M196.701 94.7415C199.771 91.6711 199.771 86.6931 196.701 83.6228C193.631 80.5525 188.653 80.5525 185.582 83.6228C182.512 86.6931 182.512 91.6711 185.582 94.7415C188.653 97.8118 193.631 97.8118 196.701 94.7415Z" fill="#F2F4F7"/>
<path d="M200.717 96.9562C203.687 96.4742 205.704 93.6758 205.222 90.7059C204.739 87.736 201.941 85.7193 198.971 86.2013C196.001 86.6834 193.985 89.4818 194.467 92.4517C194.949 95.4216 197.747 97.4383 200.717 96.9562Z" fill="#E4E7EC"/>
<path d="M123 217.218C190.676 217.218 245.538 214.015 245.538 210.064C245.538 206.113 190.676 202.91 123 202.91C55.3238 202.91 0.461426 206.113 0.461426 210.064C0.461426 214.015 55.3238 217.218 123 217.218Z" fill="#F2F4F7"/>
<path d="M44.7017 161.052H125.876V202.96C125.876 203.497 125.77 204.029 125.564 204.525C125.359 205.021 125.058 205.472 124.678 205.852C124.298 206.231 123.848 206.532 123.352 206.738C122.855 206.943 122.324 207.049 121.787 207.049H48.7907C48.2537 207.049 47.722 206.943 47.2259 206.738C46.7298 206.532 46.279 206.231 45.8993 205.852C45.5196 205.472 45.2184 205.021 45.0129 204.525C44.8074 204.029 44.7017 203.497 44.7017 202.96V161.052Z" fill="#715EEB"/>
<path d="M44.7014 161.052H102.144L95.0781 152.008C94.3008 151.016 92.3795 150.213 90.7805 150.213H39.1209C37.5282 150.213 36.8583 151.016 37.6357 152.008L44.7014 161.052Z" fill="#715EEB"/>
<path opacity="0.2" d="M44.7014 161.052H102.144L95.0781 152.008C94.3008 151.016 92.3795 150.213 90.7805 150.213H39.1209C37.5282 150.213 36.8583 151.016 37.6357 152.008L44.7014 161.052Z" fill="black"/>
<path d="M125.876 161.052H68.4395L75.5052 155.156C76.2826 154.524 78.2039 153.986 79.8028 153.986H131.456C133.055 153.986 133.719 154.511 132.941 155.156L125.876 161.052Z" fill="#715EEB"/>
<path opacity="0.2" d="M68.4395 161.052H125.876V202.96C125.876 203.497 125.77 204.029 125.564 204.525C125.359 205.021 125.058 205.472 124.678 205.852C124.298 206.231 123.847 206.532 123.351 206.738C122.855 206.943 122.324 207.049 121.787 207.049H72.5285C71.9915 207.049 71.4598 206.943 70.9637 206.738C70.4676 206.532 70.0168 206.231 69.6371 205.852C69.2574 205.472 68.9562 205.021 68.7507 204.525C68.5452 204.029 68.4395 203.497 68.4395 202.96V161.052Z" fill="white"/>
<path opacity="0.5" d="M51.8306 161.052V189.796L53.815 188.228L55.2118 189.796L56.4252 188.051L57.6702 189.796L59.4019 188.487L61.3106 189.796V161.052H51.8306Z" fill="white"/>
<path d="M64.679 98.3512L54.4722 89.7812" stroke="#715EEB" stroke-miterlimit="10"/>
<path d="M69.9688 102.794L66.8594 100.178" stroke="#715EEB" stroke-miterlimit="10"/>
<path d="M100.545 120.73L134.218 78.6453L89.3842 41.0034L59.6802 75.0872L55.2562 83.6129C55.0366 83.8549 54.8692 84.1396 54.7646 84.4493C54.66 84.7589 54.6204 85.0868 54.6483 85.4124C54.6762 85.7381 54.7709 86.0545 54.9266 86.3418C55.0823 86.6292 55.2957 86.8813 55.5532 87.0825L96.0012 121.046C96.659 121.576 97.4926 121.838 98.3352 121.779C99.1779 121.721 99.9673 121.346 100.545 120.73Z" fill="#715EEB"/>
<path opacity="0.5" d="M77.4519 89.6929L72.6045 97.4981L74.5574 97.9215L75.221 99.729L76.5166 99.8049L77.117 101.353L78.7033 101.815L79.9231 103.755L84.7705 95.9497L77.4519 89.6929Z" fill="white"/>
<path opacity="0.1" d="M132.752 77.4129L102.555 111.099L59.6611 75.0872L89.3841 41.0034L132.752 77.4129Z" fill="black"/>
<path d="M132.752 77.4131L102.555 111.099L115.056 112.021L144.785 77.9376L132.752 77.4131Z" fill="#715EEB"/>
<path opacity="0.3" d="M132.752 77.4131L102.555 111.099L115.056 112.021L144.785 77.9376L132.752 77.4131Z" fill="black"/>
<path d="M77.3571 40.4727L47.1538 74.1646L59.6611 75.0873L89.384 41.0035L77.3571 40.4727Z" fill="#715EEB"/>
<path opacity="0.4" d="M77.3571 40.4727L47.1538 74.1646L59.6611 75.0873L89.384 41.0035L77.3571 40.4727Z" fill="black"/>
<path opacity="0.1" d="M123.455 87.784L132.752 77.4129L89.3839 41.0034L83.835 54.3765L123.455 87.784Z" fill="black"/>
<path opacity="0.2" d="M59.6611 75.0872L89.3841 41.0034L83.8351 54.3765L62.9033 77.8111L59.6611 75.0872Z" fill="black"/>
<path d="M143.224 13.9918C143.344 14.3963 143.224 14.7944 142.959 14.8703C142.693 14.9461 142.384 14.6807 142.263 14.2762C142.143 13.8717 142.263 13.4735 142.529 13.3914C142.794 13.3092 143.11 13.5873 143.224 13.9918Z" fill="#263238"/>
<path d="M143.268 14.7881C143.149 16.1787 142.839 17.5462 142.346 18.8518C142.684 18.969 143.043 19.0111 143.399 18.9751C143.755 18.9391 144.098 18.8258 144.406 18.6433L143.268 14.7881Z" fill="#ED847E"/>
<path d="M144.065 11.2933C144.118 11.2624 144.159 11.2129 144.178 11.1542C144.19 11.1236 144.196 11.0909 144.195 11.058C144.193 11.0252 144.185 10.993 144.171 10.9634C144.157 10.9337 144.137 10.9073 144.112 10.8858C144.087 10.8643 144.058 10.8481 144.027 10.8382C143.657 10.6963 143.258 10.6457 142.864 10.6908C142.47 10.7359 142.093 10.8754 141.764 11.0973C141.721 11.1407 141.696 11.198 141.692 11.2588C141.688 11.3195 141.706 11.3796 141.743 11.4281C141.78 11.4765 141.833 11.51 141.893 11.5224C141.952 11.5347 142.014 11.5252 142.068 11.4955C142.33 11.3233 142.63 11.2163 142.942 11.1833C143.254 11.1503 143.57 11.1924 143.862 11.3059C143.895 11.3179 143.93 11.3229 143.965 11.3207C144 11.3186 144.034 11.3092 144.065 11.2933Z" fill="#263238"/>
<path d="M157.28 16.697C157.558 20.0466 158.386 26.177 160.364 27.5927C160.364 27.5927 159.896 31.6186 152.78 32.6487C144.981 33.799 148.482 29.3244 148.482 29.3244C152.584 27.6812 152.009 24.5402 150.833 21.6835L153.842 18.2328C154.998 16.9562 157.128 14.9843 157.28 16.697Z" fill="#FFC3BD"/>
<path d="M162.911 29.2293C163.543 28.6542 162.279 26.3537 161.502 26.0314C159.467 25.1782 151.143 26.0314 148.015 28.7174C147.755 29.1618 147.598 29.6586 147.556 30.1715C147.513 30.6844 147.586 31.2003 147.768 31.6815L162.911 29.2293Z" fill="white"/>
<path d="M189.417 198.163C189.212 198.257 188.989 198.308 188.764 198.315C188.538 198.321 188.313 198.283 188.102 198.201C188.019 198.135 187.958 198.045 187.928 197.944C187.897 197.842 187.899 197.733 187.932 197.632C187.949 197.55 187.983 197.472 188.034 197.404C188.084 197.336 188.148 197.281 188.223 197.241C188.905 196.842 190.593 197.367 190.662 197.392C190.685 197.398 190.706 197.411 190.722 197.429C190.738 197.447 190.748 197.47 190.751 197.493C190.754 197.518 190.75 197.544 190.738 197.566C190.727 197.589 190.709 197.607 190.687 197.62C190.283 197.844 189.858 198.026 189.417 198.163ZM188.494 197.392L188.349 197.455C188.306 197.479 188.268 197.511 188.239 197.551C188.209 197.59 188.189 197.635 188.178 197.683C188.134 197.91 188.223 197.98 188.248 197.999C188.551 198.214 189.581 197.904 190.296 197.544C189.714 197.361 189.099 197.309 188.494 197.392Z" fill="#715EEB"/>
<path d="M190.662 197.626C190.641 197.632 190.619 197.632 190.599 197.626C189.967 197.5 188.646 196.71 188.576 196.115C188.567 196.022 188.589 195.928 188.641 195.849C188.693 195.771 188.771 195.713 188.861 195.686C188.948 195.647 189.043 195.626 189.139 195.626C189.235 195.626 189.33 195.647 189.417 195.686C190.15 195.989 190.719 197.405 190.738 197.462C190.75 197.48 190.757 197.502 190.757 197.525C190.757 197.547 190.75 197.569 190.738 197.588C190.729 197.6 190.718 197.609 190.704 197.616C190.691 197.622 190.677 197.626 190.662 197.626ZM189.019 195.901C189 195.895 188.981 195.895 188.962 195.901C188.817 195.964 188.823 196.04 188.829 196.071C188.867 196.425 189.765 197.063 190.403 197.297C190.213 196.886 189.771 196.09 189.322 195.901C189.225 195.863 189.117 195.863 189.019 195.901Z" fill="#715EEB"/>
<path d="M152.376 204.951C151.699 204.951 151.048 204.856 150.827 204.553C150.771 204.473 150.74 204.378 150.74 204.281C150.74 204.184 150.771 204.089 150.827 204.009C150.869 203.936 150.926 203.872 150.993 203.821C151.06 203.77 151.137 203.733 151.219 203.712C152.098 203.478 153.943 204.527 154.019 204.572C154.042 204.583 154.062 204.602 154.074 204.625C154.086 204.648 154.09 204.674 154.085 204.7C154.081 204.725 154.069 204.749 154.05 204.767C154.031 204.785 154.007 204.796 153.981 204.799C153.452 204.898 152.914 204.949 152.376 204.951ZM151.541 203.927C151.46 203.924 151.379 203.935 151.301 203.959C151.2 203.981 151.112 204.042 151.055 204.129C150.966 204.287 150.998 204.363 151.055 204.407C151.301 204.749 152.635 204.755 153.583 204.616C152.953 204.257 152.26 204.023 151.541 203.927Z" fill="#715EEB"/>
<path d="M153.968 204.805H153.918C153.286 204.521 152.022 203.377 152.116 202.783C152.116 202.644 152.243 202.467 152.584 202.435C152.707 202.421 152.832 202.433 152.951 202.47C153.07 202.507 153.179 202.569 153.273 202.65C153.949 203.2 154.088 204.622 154.095 204.679C154.098 204.701 154.095 204.723 154.086 204.743C154.077 204.763 154.063 204.781 154.044 204.793C154.021 204.805 153.994 204.809 153.968 204.805ZM152.704 202.669H152.628C152.401 202.669 152.388 202.783 152.382 202.808C152.325 203.168 153.184 204.072 153.829 204.458C153.774 203.855 153.531 203.284 153.134 202.827C153.015 202.723 152.862 202.666 152.704 202.669Z" fill="#715EEB"/>
<path d="M159.77 204.679H154.493L153.968 192.469H159.245L159.77 204.679Z" fill="#FFC3BD"/>
<path d="M196.837 196.343L191.976 198.017L186.933 186.509L191.793 184.834L196.837 196.343Z" fill="#FFC3BD"/>
<path d="M190.82 196.81L196.508 195.072C196.608 195.042 196.717 195.046 196.814 195.085C196.912 195.124 196.993 195.196 197.045 195.287L199.415 199.459C199.472 199.561 199.505 199.674 199.512 199.791C199.519 199.907 199.5 200.024 199.455 200.132C199.411 200.24 199.343 200.337 199.256 200.415C199.169 200.493 199.066 200.551 198.954 200.584C196.963 201.159 195.971 201.336 193.481 202.1C191.945 202.568 188.077 204.034 185.897 204.47C183.716 204.906 183.015 202.821 183.862 202.448C187.654 200.773 189.208 198.871 190.112 197.392C190.27 197.119 190.521 196.912 190.82 196.81Z" fill="#263238"/>
<path d="M154.531 204.066H160.288C160.392 204.067 160.493 204.104 160.574 204.169C160.656 204.234 160.713 204.325 160.737 204.426L161.78 209.116C161.805 209.229 161.805 209.346 161.779 209.459C161.753 209.572 161.701 209.678 161.628 209.768C161.555 209.858 161.462 209.93 161.357 209.979C161.252 210.028 161.137 210.053 161.021 210.051C158.942 210.019 155.965 209.893 153.33 209.893C150.277 209.893 148.994 210.064 145.411 210.064C143.249 210.064 142.649 207.877 143.553 207.675C147.68 206.771 149.696 206.676 153.26 204.477C153.638 204.226 154.078 204.084 154.531 204.066Z" fill="#263238"/>
<path d="M169.856 30.9546C171.392 32.3639 172.719 33.7733 174.097 35.2459C175.475 36.7184 176.752 38.2416 177.99 39.8658C179.284 41.5159 180.458 43.2562 181.504 45.0735C182.076 46.0751 182.57 47.1188 182.983 48.1955C183.09 48.4926 183.198 48.777 183.286 49.0993C183.39 49.4253 183.476 49.7565 183.545 50.0915L183.653 50.6161L183.729 51.1975C183.8 51.7303 183.8 52.2701 183.729 52.8028C183.584 53.8085 183.212 54.768 182.642 55.6089C182.226 56.223 181.738 56.7853 181.188 57.2837C180.305 58.0852 179.339 58.7907 178.306 59.3883C176.488 60.4286 174.585 61.3144 172.618 62.0364C168.887 63.4212 165.043 64.4786 161.128 65.1964L160.022 61.4044C163.454 59.9192 166.93 58.3139 170.134 56.6011C171.694 55.7829 173.196 54.858 174.628 53.833C175.225 53.4091 175.773 52.9217 176.265 52.3794C176.414 52.219 176.54 52.0381 176.638 51.8422C176.688 51.7347 176.638 51.7474 176.575 51.9749C176.53 52.3984 176.537 52.0697 176.436 51.8422C176.404 51.7347 176.347 51.5894 176.29 51.4504C176.233 51.3113 176.164 51.1533 176.094 51.0016C175.752 50.3124 175.37 49.6434 174.95 48.9982C173.974 47.5489 172.919 46.1543 171.79 44.8207C170.627 43.4429 169.401 42.0715 168.144 40.7253C166.886 39.3792 165.565 38.0203 164.352 36.769L169.856 30.9546Z" fill="#FFC3BD"/>
<path d="M161.47 60.8042L156.496 62.3084L159.694 67.5666C159.694 67.5666 162.633 66.3532 163.284 63.8568L161.47 60.8042Z" fill="#FFC3BD"/>
<path d="M154.486 64.1725L156.446 68.508L159.662 67.5727L156.464 62.3081L154.486 64.1725Z" fill="#FFC3BD"/>
<path d="M158.202 32.3829C157.728 37.4389 168.422 45.2631 168.422 45.2631L178.717 38.2163C176.929 34.9191 174.316 32.1425 171.133 30.1583C165.23 26.3789 158.796 26.1009 158.202 32.3829Z" fill="#715EEB"/>
<g opacity="0.3">
<path d="M158.202 32.3829C157.728 37.4389 168.422 45.2631 168.422 45.2631L178.717 38.2163C176.929 34.9191 174.316 32.1425 171.133 30.1583C165.23 26.3789 158.796 26.1009 158.202 32.3829Z" fill="white"/>
</g>
<path d="M140.696 31.9786C140.696 31.9786 136.076 39.0697 147.048 77.1034L174.944 72.9828C174.552 69.1276 169.888 52.3101 169.73 33.9252C169.724 33.0373 169.537 32.16 169.182 31.3462C168.828 30.5323 168.312 29.7988 167.665 29.1898C167.019 28.5809 166.256 28.1092 165.423 27.8032C164.589 27.4971 163.703 27.3631 162.816 27.4093C162.007 27.4535 161.173 27.5104 160.345 27.5925C156.362 27.9476 152.404 28.5321 148.489 29.3432C145.827 30.0203 143.222 30.9014 140.696 31.9786Z" fill="#715EEB"/>
<g opacity="0.3">
<path d="M140.696 31.9786C140.696 31.9786 136.076 39.0697 147.048 77.1034L174.944 72.9828C174.552 69.1276 169.888 52.3101 169.73 33.9252C169.724 33.0373 169.537 32.16 169.182 31.3462C168.828 30.5323 168.312 29.7988 167.665 29.1898C167.019 28.5809 166.256 28.1092 165.423 27.8032C164.589 27.4971 163.703 27.3631 162.816 27.4093C162.007 27.4535 161.173 27.5104 160.345 27.5925C156.362 27.9476 152.404 28.5321 148.489 29.3432C145.827 30.0203 143.222 30.9014 140.696 31.9786Z" fill="white"/>
</g>
<path opacity="0.2" d="M140.014 44.2017L140.108 44.0942L146.669 44.6757C147.667 48.9101 144.014 54.6866 142.087 57.3662C141.159 53.0187 140.467 48.624 140.014 44.2017Z" fill="black"/>
<path opacity="0.2" d="M153.968 192.475L154.24 198.77H159.517L159.245 192.475H153.968Z" fill="black"/>
<path opacity="0.2" d="M191.793 184.834L186.933 186.509L189.537 192.443L194.397 190.768L191.793 184.834Z" fill="black"/>
<path d="M156.591 9.13822C157.754 14.2385 158.689 17.1646 156.913 20.5142C154.246 25.5007 147.383 25.0204 144.722 20.3689C142.327 16.1787 140.823 8.54414 145.145 5.10606C146.093 4.34543 147.219 3.83905 148.416 3.63482C149.614 3.4306 150.844 3.53529 151.99 3.93897C153.136 4.34266 154.159 5.03201 154.965 5.9418C155.77 6.85159 156.33 7.95176 156.591 9.13822Z" fill="#FFC3BD"/>
<path d="M146.346 14.1375L144.406 15.3256L144.589 8.68963C143.338 8.74335 142.104 8.38597 141.075 7.67211C141.777 7.00219 152.698 3.17859 156.104 3.84219C156.458 3.69683 156.888 3.03955 156.888 3.03955C156.888 3.03955 157.021 3.86747 156.445 4.18347C156.863 4.10131 157.905 4.30355 158.196 4.91659C157.718 4.78591 157.209 4.81476 156.749 4.99875C156.749 4.99875 160.541 5.57387 159.195 10.8321C157.684 16.6276 158.183 19.9582 158.183 19.9582C158.183 19.9582 155.365 22.1386 152.913 21.7341C150.296 18.8522 146.517 15.3888 146.346 14.1375Z" fill="#263238"/>
<path d="M142.63 7.14753C139.552 7.14753 138.446 5.64337 137.656 4.37937C139.868 4.14553 144.476 2.72353 147.895 2.48337C151.314 2.24321 155.062 2.88153 153.93 4.37937C152.799 5.87721 142.63 7.14753 142.63 7.14753Z" fill="#263238"/>
<path d="M143.306 5.77589C140.778 5.42197 138.314 3.03933 140.21 0.757812C140.911 2.43261 145.645 2.23669 149.007 1.53517C153.431 0.612455 156.496 2.10397 154.929 5.11861C154.069 6.76813 143.306 5.77589 143.306 5.77589Z" fill="#263238"/>
<path d="M149.076 12.6269C149.438 13.8748 149.38 15.2069 148.912 16.4189C148.28 18.0052 146.877 17.6829 146.144 16.3114C145.512 15.0474 145.031 12.7533 146.106 11.6093C147.18 10.4654 148.621 11.129 149.076 12.6269Z" fill="#FFC3BD"/>
<path d="M156.945 75.6436C156.945 75.6436 161.47 114.164 164.756 129.256C168.352 145.789 186.093 190.864 186.093 190.864L194.941 187.805C194.941 187.805 183.565 153.866 180.544 130.754C178.224 113.007 174.919 72.9829 174.919 72.9829L156.945 75.6436Z" fill="#263238"/>
<path d="M183.83 188.032C183.786 188.032 185.644 191.824 185.644 191.824L195.977 188.468L194.764 185.384L183.83 188.032Z" fill="#715EEB"/>
<path opacity="0.3" d="M159.441 95.4062C160.857 106.112 162.671 118.79 164.264 126.886C166.608 114.48 167.158 98.8127 159.441 95.4062Z" fill="black"/>
<path d="M147.047 77.1032C147.047 77.1032 143.293 113.292 143.887 129.37C144.482 146.092 152.293 197.55 152.293 197.55H161.223C161.223 197.55 159.58 147.066 159.959 130.646C160.395 112.742 167.107 74.1392 167.107 74.1392L147.047 77.1032Z" fill="#263238"/>
<path d="M150.555 193.992C150.517 193.992 151.061 197.695 151.061 197.695H161.925L162.222 194.39L150.555 193.992Z" fill="#715EEB"/>
<path d="M145.316 40.8644C144.33 42.4318 143.332 43.8412 142.295 45.2884C141.259 46.7357 140.172 48.1324 139.066 49.5228C136.811 52.3434 134.368 55.0081 131.753 57.4987C131.045 58.1307 130.395 58.7627 129.63 59.3378L129.074 59.7865L128.796 60.0077C128.694 60.0899 128.65 60.1341 128.442 60.2858C127.816 60.7324 127.128 61.0858 126.4 61.3349C125.274 61.7197 124.095 61.9327 122.905 61.9669C121.899 62.0007 120.891 61.9563 119.891 61.8342C116.235 61.3549 112.669 60.3458 109.305 58.8385L110.398 55.0465C113.632 55.4302 116.888 55.5864 120.143 55.5142C120.864 55.4765 121.581 55.3984 122.292 55.2804C122.828 55.202 123.349 55.04 123.834 54.8C123.986 54.7179 124.068 54.6357 124.049 54.6168C124.03 54.5978 124.131 54.5346 124.188 54.4777L124.403 54.2818L124.827 53.8836C125.395 53.378 125.933 52.765 126.489 52.2088C127.582 51.0333 128.669 49.8262 129.699 48.5432C130.729 47.2603 131.772 45.971 132.783 44.6438C133.795 43.3166 134.774 41.9704 135.76 40.6243C136.746 39.2781 137.707 37.8624 138.617 36.5542L145.316 40.8644Z" fill="#FFC3BD"/>
<path d="M148.988 39.1897C151.112 46.1417 138.781 53.8458 138.781 53.8458L130.768 43.639C132.574 40.2735 134.804 37.1534 137.404 34.3549C142.858 28.4205 147.37 33.8999 148.988 39.1897Z" fill="#715EEB"/>
<g opacity="0.3">
<path d="M148.988 39.1897C151.112 46.1417 138.781 53.8458 138.781 53.8458L130.768 43.639C132.574 40.2735 134.804 37.1534 137.404 34.3549C142.858 28.4205 147.37 33.8999 148.988 39.1897Z" fill="white"/>
</g>
<path d="M112.256 55.2804L105.766 54.0923L106.448 59.7044C106.448 59.7044 109.823 61.6004 112.269 58.6364L112.256 55.2804Z" fill="#FFC3BD"/>
<path d="M103.263 55.3563L104.666 59.4074L106.435 59.7044L105.753 54.0923L103.263 55.3563Z" fill="#FFC3BD"/>
</svg>
